<?xml version="1.0" encoding="utf-8"?>
<!-- Generator: Adobe Illustrator 25.0.1, SVG Export Plug-In . SVG Version: 6.00 Build 0)  -->
<svg version="1.1" id="Layer_1" xmlns="http://www.w3.org/2000/svg" xmlns:xlink="http://www.w3.org/1999/xlink" x="0px" y="0px"
	 viewBox="0 0 500 500" style="enable-background:new 0 0 500 500;" xml:space="preserve">
<style type="text/css">
	.st0{opacity:0.6;}
	.st1{fill:#FFFFFF;}
	.st2{fill:#E2F2F8;}
	.st3{filter:url(#Adobe_OpacityMaskFilter);}
	.st4{filter:url(#Adobe_OpacityMaskFilter_1_);}
	.st5{mask:url(#SVGID_1_);fill:url(#SVGID_2_);}
	.st6{opacity:0.5;fill:url(#SVGID_3_);}
	.st7{fill:url(#SVGID_4_);}
	.st8{fill:#FEF07E;}
	.st9{filter:url(#Adobe_OpacityMaskFilter_2_);}
	.st10{filter:url(#Adobe_OpacityMaskFilter_3_);}
	.st11{mask:url(#SVGID_5_);fill:url(#SVGID_6_);}
	.st12{opacity:0.6;fill:url(#SVGID_7_);}
	.st13{fill:#676767;}
	.st14{fill:#767676;}
	.st15{fill:#5B5A5A;}
	.st16{fill:#35B8C2;}
	.st17{fill:#D4EBEF;}
	.st18{fill:#A2D7E4;}
	.st19{fill:#3B869F;}
	.st20{fill:#4EB2D4;}
	.st21{fill:#189CC4;}
	.st22{fill:#E7E6E6;}
	.st23{fill:#2581C4;}
	.st24{fill:#5C5C5C;}
	.st25{fill:#B3B2B2;}
	.st26{fill:#4E4D4D;}
	.st27{fill:#5D5D5D;}
	.st28{fill:#CDCCCC;}
	.st29{fill:#DEB275;}
	.st30{fill:#FCCD8D;}
	.st31{fill:#B38358;}
	.st32{fill:#E9BC7F;}
	.st33{opacity:0.2;fill:#020203;}
	.st34{fill:#C99D62;}
	.st35{fill:#919191;}
	.st36{filter:url(#Adobe_OpacityMaskFilter_4_);}
	.st37{filter:url(#Adobe_OpacityMaskFilter_5_);}
	.st38{mask:url(#SVGID_8_);fill:url(#SVGID_9_);}
	.st39{opacity:0.5;fill:url(#SVGID_10_);}
	.st40{filter:url(#Adobe_OpacityMaskFilter_6_);}
	.st41{filter:url(#Adobe_OpacityMaskFilter_7_);}
	.st42{mask:url(#SVGID_11_);fill:url(#SVGID_12_);}
	.st43{opacity:0.5;fill:url(#SVGID_13_);}
	.st44{filter:url(#Adobe_OpacityMaskFilter_8_);}
	.st45{filter:url(#Adobe_OpacityMaskFilter_9_);}
	.st46{mask:url(#SVGID_14_);fill:url(#SVGID_15_);}
	.st47{opacity:0.5;fill:url(#SVGID_16_);}
	.st48{fill:url(#SVGID_17_);}
	.st49{fill:url(#SVGID_18_);}
	.st50{fill:#EEEDEC;}
	.st51{fill:#EDCF84;}
	.st52{fill:#A7D9E3;}
	.st53{fill:url(#SVGID_19_);}
	.st54{fill:#6FC7D8;}
	.st55{fill:#DAC662;}
	.st56{fill:#E9DD6A;}
	.st57{fill:#FFF3A0;}
	.st58{fill:#E9DB52;}
	.st59{fill:#AEB0B4;}
	.st60{fill:#CBCDD1;}
	.st61{filter:url(#Adobe_OpacityMaskFilter_10_);}
	.st62{filter:url(#Adobe_OpacityMaskFilter_11_);}
	.st63{mask:url(#SVGID_20_);fill:url(#SVGID_21_);}
	.st64{opacity:0.5;fill:url(#SVGID_22_);}
	.st65{fill:#EBF5F2;}
	.st66{fill:#199A6A;}
	.st67{fill:#1EAC76;}
	.st68{fill:#4EB587;}
	.st69{fill:#3DB17F;}
	.st70{fill:#28AD79;}
	.st71{fill:#2C8B90;}
	.st72{fill:#54BEC8;}
	.st73{fill:#84CDD9;}
	.st74{fill:#68C3CD;}
</style>
<g class="st0">
	<g>
		<g>
			
				<rect x="412.59" y="103.75" transform="matrix(0.4239 -0.9057 0.9057 0.4239 99.7164 461.8488)" class="st1" width="0.59" height="97.59"/>
		</g>
		<g>
			
				<rect x="292.05" y="150.21" transform="matrix(0.8882 -0.4594 0.4594 0.8882 -31.9633 169.6403)" class="st1" width="81.18" height="0.59"/>
		</g>
		<g>
			
				<rect x="376.94" y="130.93" transform="matrix(0.9765 -0.2156 0.2156 0.9765 -27.8963 85.3433)" class="st1" width="0.59" height="79.22"/>
		</g>
		<g>
			
				<rect x="325.95" y="269.47" transform="matrix(0.5856 -0.8106 0.8106 0.5856 -125.687 397.8279)" class="st1" width="0.59" height="104.75"/>
		</g>
		<g>
			
				<rect x="440.23" y="176.17" transform="matrix(0.4661 -0.8847 0.8847 0.4661 24.5754 516.8504)" class="st1" width="0.59" height="123.78"/>
		</g>
		<g>
			<polygon class="st1" points="408.43,289.54 408.54,289.27 457.53,173.09 456.87,172.81 456.76,173.09 407.77,289.27 			"/>
		</g>
		<g>
			
				<rect x="213.27" y="70.77" transform="matrix(0.1681 -0.9858 0.9858 0.1681 24.8752 339.4716)" class="st1" width="0.59" height="168.45"/>
		</g>
		<g>
			
				<rect x="274.12" y="116.62" transform="matrix(0.6977 -0.7164 0.7164 0.6977 -22.7533 241.2107)" class="st1" width="0.59" height="61.89"/>
		</g>
		<g>
			
				<rect x="157.19" y="309.32" transform="matrix(0.4763 -0.8793 0.8793 0.4763 -166.8033 339.1749)" class="st1" width="88.29" height="0.59"/>
		</g>
		<g>
			
				<rect x="172.92" y="319.51" transform="matrix(0.8749 -0.4842 0.4842 0.8749 -125.8401 152.3652)" class="st1" width="118.27" height="0.59"/>
		</g>
		<g>
			
				<rect x="133.52" y="278.65" transform="matrix(0.9833 -0.1818 0.1818 0.9833 -47.7472 37.072)" class="st1" width="89.6" height="0.59"/>
		</g>
		<g>
			<polygon class="st1" points="5.83,266.53 86.27,203.23 85.9,202.77 5.46,266.07 			"/>
		</g>
		<g>
			
				<rect x="62.99" y="144.87" transform="matrix(0.7297 -0.6838 0.6838 0.7297 -104.7513 91.4496)" class="st1" width="0.59" height="66.68"/>
		</g>
		<g>
			
				<rect x="70.29" y="171.4" transform="matrix(0.5845 -0.8114 0.8114 0.5845 -94.3049 159.2138)" class="st1" width="76.04" height="0.59"/>
		</g>
		<g>
			
				<rect x="132.11" y="140.82" transform="matrix(0.9997 -0.0254 0.0254 0.9997 -5.3925 3.4323)" class="st1" width="0.59" height="146.3"/>
		</g>
		<g>
			
				<rect x="142.63" y="150.82" transform="matrix(0.0941 -0.9956 0.9956 0.0941 -77.5217 330.6306)" class="st1" width="0.59" height="114.18"/>
		</g>
		<g>
			
				<rect x="156.99" y="279.41" transform="matrix(0.7997 -0.6004 0.6004 0.7997 -159.2915 158.1039)" class="st1" width="0.59" height="76.7"/>
		</g>
		<g>
			
				<rect x="214.4" y="246.99" transform="matrix(0.7939 -0.608 0.608 0.7939 -98.1997 204.849)" class="st1" width="77.37" height="0.59"/>
		</g>
		<g>
			
				<rect x="210.77" y="211.15" transform="matrix(0.9306 -0.3659 0.3659 0.9306 -73.9335 94.0238)" class="st1" width="0.59" height="61.8"/>
		</g>
		<g>
			
				<rect x="283.27" y="216.19" transform="matrix(0.99 -0.1412 0.1412 0.99 -27.2131 49.4385)" class="st1" width="103.01" height="0.59"/>
		</g>
		<g>
			<rect x="283.49" y="223.76" class="st1" width="0.59" height="67.41"/>
		</g>
		<g>
			
				<rect x="130.09" y="133.11" transform="matrix(0.9926 -0.1213 0.1213 0.9926 -14.7638 24.1909)" class="st1" width="122.61" height="0.59"/>
		</g>
		<g>
			
				<rect x="406.82" y="277.72" transform="matrix(0.9689 -0.2473 0.2473 0.9689 -54.7177 120.3374)" class="st1" width="89.86" height="0.59"/>
		</g>
		<g>
			
				<rect x="351.11" y="320.52" transform="matrix(0.5291 -0.8485 0.8485 0.5291 -89.3164 480.6894)" class="st1" width="74.69" height="0.59"/>
		</g>
		<g>
			
				<rect x="241.48" y="176.18" transform="matrix(0.1236 -0.9923 0.9923 0.1236 -4.9633 431.4281)" class="st1" width="0.59" height="84.68"/>
		</g>
		<g>
			
				<rect x="262.15" y="196.16" transform="matrix(0.2282 -0.9736 0.9736 0.2282 32.6926 434.1555)" class="st1" width="56.09" height="0.59"/>
		</g>
		<g>
			<polygon class="st1" points="283.87,291.62 284.05,291.48 386.26,209.35 385.75,208.71 283.71,290.71 222.21,270.32 
				221.96,271.1 222.24,271.19 			"/>
		</g>
		<g>
			<polygon class="st1" points="134.49,287.54 134.62,286.74 134.33,286.69 5.42,265.85 5.29,266.65 5.58,266.7 			"/>
		</g>
		<g>
			<polygon class="st1" points="199.66,213.78 199.93,213.66 297.03,169.4 296.69,168.66 199.32,213.04 			"/>
		</g>
		<g>
			<polygon class="st1" points="134.19,287.79 134.57,287.36 200.26,213.34 199.65,212.8 134.34,286.4 86.29,202.08 85.59,202.48 
							"/>
		</g>
		<g>
			
				<rect x="164.74" y="126.67" transform="matrix(0.7232 -0.6906 0.6906 0.7232 -76.5742 163.063)" class="st1" width="0.81" height="100.79"/>
		</g>
		<g>
			<polygon class="st1" points="283.5,291.58 283.8,291.57 408.52,289.53 408.5,288.72 408.21,288.72 283.49,290.77 			"/>
		</g>
		<g>
			<polygon class="st1" points="407.9,289.53 408.69,289.31 408.61,289.02 386.08,208.82 385.3,209.04 385.38,209.32 			"/>
		</g>
		<g>
			<polygon class="st1" points="385.78,209.67 385.96,209.58 457.53,173.46 457.17,172.73 385.76,208.77 296.49,168.66 
				296.15,169.4 			"/>
		</g>
	</g>
	<g>
		<g>
			
				<ellipse transform="matrix(0.9871 -0.1602 0.1602 0.9871 -21.8456 75.4539)" class="st1" cx="457.09" cy="173.23" rx="4.07" ry="4.07"/>
		</g>
		<g>
			
				<ellipse transform="matrix(0.9871 -0.1602 0.1602 0.9871 -41.0425 69.1221)" class="st1" cx="408.21" cy="289.13" rx="4.07" ry="4.07"/>
		</g>
		<g>
			<circle class="st1" cx="385.77" cy="209.22" r="4.07"/>
		</g>
		<g>
			
				<ellipse transform="matrix(0.9871 -0.1602 0.1602 0.9871 -16.361 60.7607)" class="st1" cx="368.69" cy="131.86" rx="4.07" ry="4.07"/>
		</g>
		<g>
			<circle class="st1" cx="130.54" cy="140.84" r="4.07"/>
		</g>
		<g>
			<circle class="st1" cx="252.25" cy="125.98" r="4.07"/>
		</g>
		<g>
			
				<ellipse transform="matrix(0.9874 -0.1585 0.1585 0.9874 -42.1331 4.2607)" class="st1" cx="5.65" cy="266.3" rx="4.07" ry="4.07"/>
		</g>
		<g>
			<circle class="st1" cx="296.59" cy="169.15" r="4.07"/>
		</g>
		<g>
			<circle class="st1" cx="283.79" cy="291.17" r="4.07"/>
		</g>
		<g>
			<circle class="st1" cx="495.29" cy="266.91" r="4.07"/>
		</g>
		<g>
			<circle class="st1" cx="134.27" cy="287.09" r="4.07"/>
		</g>
		<g>
			<circle class="st1" cx="86.09" cy="202.54" r="4.07"/>
		</g>
		<g>
			<circle class="st1" cx="40.49" cy="153.88" r="4.07"/>
		</g>
		<g>
			<circle class="st1" cx="199.76" cy="213.29" r="4.07"/>
		</g>
		<g>
			<circle class="st1" cx="222.37" cy="270.8" r="4.07"/>
		</g>
		<g>
			<circle class="st1" cx="180.31" cy="348.44" r="4.07"/>
		</g>
		<g>
			<circle class="st1" cx="368.69" cy="352.51" r="4.07"/>
		</g>
		<g>
			<circle class="st1" cx="283.79" cy="223.76" r="4.07"/>
		</g>
	</g>
</g>
<g>
	<g>
		<circle class="st2" cx="151.99" cy="127.54" r="5.9"/>
		<g>
			<path class="st2" d="M153.68,99.71l-0.24-3.79c-19.9-0.04-35.01,15.81-34.03,35.67l3.79,0.06
				C122.36,113.87,135.88,99.7,153.68,99.71z"/>
			<path class="st2" d="M154.19,107.57l-0.24-3.79c-15.55,0.03-27.36,12.4-26.66,27.93l3.79,0.06
				C130.52,118.33,140.73,107.63,154.19,107.57z"/>
			<path class="st2" d="M154.68,115.18l-0.24-3.79c-11.35,0.09-19.96,9.11-19.52,20.44l3.79,0.06
				C138.41,122.65,145.42,115.3,154.68,115.18z"/>
		</g>
	</g>
	<defs>
		<filter id="Adobe_OpacityMaskFilter" filterUnits="userSpaceOnUse" x="21.31" y="308.96" width="254.91" height="89.66">
			<feFlood  style="flood-color:white;flood-opacity:1" result="back"/>
			<feBlend  in="SourceGraphic" in2="back" mode="normal"/>
		</filter>
	</defs>
	<mask maskUnits="userSpaceOnUse" x="21.31" y="308.96" width="254.91" height="89.66" id="SVGID_1_">
		<g class="st3">
			<defs>
				<filter id="Adobe_OpacityMaskFilter_1_" filterUnits="userSpaceOnUse" x="21.31" y="308.96" width="254.91" height="89.66">
					<feFlood  style="flood-color:white;flood-opacity:1" result="back"/>
					<feBlend  in="SourceGraphic" in2="back" mode="normal"/>
				</filter>
			</defs>
			<mask maskUnits="userSpaceOnUse" x="21.31" y="308.96" width="254.91" height="89.66" id="SVGID_1_">
				<g class="st4">
				</g>
			</mask>
			<linearGradient id="SVGID_2_" gradientUnits="userSpaceOnUse" x1="68.6581" y1="390.3581" x2="248.3159" y2="304.1447">
				<stop  offset="4.277940e-03" style="stop-color:#FFFFFF"/>
				<stop  offset="1" style="stop-color:#000000"/>
			</linearGradient>
			<polygon class="st5" points="21.31,385.57 84.79,398.61 276.22,318.26 210.62,308.96 			"/>
		</g>
	</mask>
	<linearGradient id="SVGID_3_" gradientUnits="userSpaceOnUse" x1="68.6581" y1="390.3581" x2="248.3159" y2="304.1447">
		<stop  offset="4.277940e-03" style="stop-color:#137BA7"/>
		<stop  offset="1" style="stop-color:#FFFFFF"/>
	</linearGradient>
	<polygon class="st6" points="21.31,385.57 84.79,398.61 276.22,318.26 210.62,308.96 	"/>
	<g>
		
			<linearGradient id="SVGID_4_" gradientUnits="userSpaceOnUse" x1="294.5558" y1="226.3362" x2="413.5759" y2="245.8954" gradientTransform="matrix(1.0187 -6.600000e-03 -0.0159 0.9818 -6.7264 10.8926)">
			<stop  offset="0" style="stop-color:#4FBECC"/>
			<stop  offset="1" style="stop-color:#93D2E1"/>
		</linearGradient>
		<path class="st7" d="M398.33,260.32l-96.36-10.6c-6.42-0.71-11.45-7.03-11.32-14.14v0c0.13-7.1,5.37-12.46,11.8-11.97l96.42,7.5
			c8.18,0.64,14.8,7.8,14.65,16v0C413.37,255.32,406.51,261.22,398.33,260.32z"/>
		<polygon class="st8" points="319.66,231.6 321.12,237.02 326.18,237.48 322.02,240.38 323.48,245.84 319.47,242.15 315.39,244.99 
			317.01,239.9 313.08,236.28 318.02,236.74 		"/>
		<polygon class="st8" points="336.42,233 337.95,238.56 343.27,239.04 338.9,242.01 340.44,247.61 336.22,243.82 331.93,246.72 
			333.64,241.5 329.5,237.78 334.7,238.26 		"/>
		<polygon class="st8" points="354.04,234.47 355.65,240.17 361.26,240.69 356.66,243.72 358.28,249.47 353.84,245.57 
			349.32,248.53 351.12,243.18 346.76,239.36 352.23,239.86 		"/>
		<polygon class="st8" points="372.6,236.02 374.31,241.88 380.22,242.42 375.37,245.52 377.08,251.43 372.4,247.41 367.64,250.44 
			369.53,244.96 364.94,241.02 370.7,241.55 		"/>
		<polygon class="st8" points="392.19,237.65 393.99,243.68 400.23,244.25 395.11,247.42 396.92,253.5 391.97,249.36 386.96,252.46 
			388.95,246.83 384.1,242.77 390.18,243.33 		"/>
	</g>
	<defs>
		<filter id="Adobe_OpacityMaskFilter_2_" filterUnits="userSpaceOnUse" x="173.39" y="283.06" width="321.9" height="88.33">
			<feFlood  style="flood-color:white;flood-opacity:1" result="back"/>
			<feBlend  in="SourceGraphic" in2="back" mode="normal"/>
		</filter>
	</defs>
	<mask maskUnits="userSpaceOnUse" x="173.39" y="283.06" width="321.9" height="88.33" id="SVGID_5_">
		<g class="st9">
			<defs>
				<filter id="Adobe_OpacityMaskFilter_3_" filterUnits="userSpaceOnUse" x="173.39" y="283.06" width="321.9" height="88.33">
					<feFlood  style="flood-color:white;flood-opacity:1" result="back"/>
					<feBlend  in="SourceGraphic" in2="back" mode="normal"/>
				</filter>
			</defs>
			<mask maskUnits="userSpaceOnUse" x="173.39" y="283.06" width="321.9" height="88.33" id="SVGID_5_">
				<g class="st10">
				</g>
			</mask>
			<linearGradient id="SVGID_6_" gradientUnits="userSpaceOnUse" x1="267.704" y1="360.8273" x2="431.7986" y2="277.591">
				<stop  offset="4.277940e-03" style="stop-color:#FFFFFF"/>
				<stop  offset="1" style="stop-color:#000000"/>
			</linearGradient>
			<path class="st11" d="M173.39,355.4l207.98-72.34l113.92,15.59L320.61,367.3c-6.8,3.42-14.47,4.74-22.02,3.8L173.39,355.4z"/>
		</g>
	</mask>
	<linearGradient id="SVGID_7_" gradientUnits="userSpaceOnUse" x1="267.704" y1="360.8273" x2="431.7986" y2="277.591">
		<stop  offset="4.277940e-03" style="stop-color:#137BA7"/>
		<stop  offset="1" style="stop-color:#FFFFFF"/>
	</linearGradient>
	<path class="st12" d="M173.39,355.4l207.98-72.34l113.92,15.59L320.61,367.3c-6.8,3.42-14.47,4.74-22.02,3.8L173.39,355.4z"/>
	<g>
		<path class="st13" d="M322.23,90.5c-1.91-14.09-25.13-19.41-25.11-10.28l-100.34,4.72c-6.53,0.31-12.01,6.29-12.3,13.36
			l-9.76,238.75c-0.29,7.07,4.69,13.48,11.17,14.32l99.78,12.93c0.6,1.35,1.77,2.65,3.67,3.85c12.27,1.76,18.5-3.07,21-9.11
			c0.8-1.61,1.28-3.44,1.36-5.42C311.42,350.26,322.88,93.8,322.23,90.5z"/>
		<g>
			<g>
				<path class="st14" d="M288.19,368.04l-113.89-14.75c-6.61-0.86-11.7-7.4-11.4-14.62l9.97-243.79
					c0.3-7.22,5.89-13.33,12.56-13.64l114.71-5.4c7.76-0.36,13.83,5.73,13.51,13.61l-10.88,266.13
					C302.45,363.47,295.89,369.04,288.19,368.04z"/>
				<path class="st15" d="M289.97,366.38c-0.51,0-1.03-0.03-1.55-0.1l-113.89-14.75c-5.69-0.74-10.11-6.47-9.85-12.78l9.97-243.79
					c0.26-6.31,5.13-11.66,10.86-11.93l114.71-5.4c0.19-0.01,0.39-0.01,0.58-0.01c3.09,0,5.93,1.19,7.99,3.34
					c2.12,2.2,3.21,5.2,3.08,8.43l-10.88,266.13C300.74,361.71,296,366.38,289.97,366.38z"/>
				<polygon class="st1" points="296.64,355.41 168.17,339.84 178.32,91.65 307.65,86.41 				"/>
			</g>
			<polygon class="st16" points="306.63,111.37 177.38,114.68 178.32,91.65 307.65,86.41 			"/>
			<g>
				<g>
					<g>
						<path class="st1" d="M296.3,101.6l-7.81,0.25c-0.15,0-0.29-0.09-0.33-0.24l-1.29-4.68c-0.03-0.11-0.01-0.23,0.06-0.33
							c0.07-0.1,0.18-0.15,0.29-0.16l10.8-0.38c0.11,0,0.22,0.05,0.28,0.14c0.06,0.09,0.08,0.21,0.04,0.32l-1.7,4.8
							C296.6,101.49,296.46,101.6,296.3,101.6z M288.78,101.11l7.29-0.23l1.44-4.07l-9.82,0.34L288.78,101.11z"/>
						<path class="st1" d="M295.57,103.63l-6.66,0.2c-0.2,0.01-0.35-0.15-0.34-0.35c0.01-0.2,0.17-0.37,0.37-0.37l6.4-0.2
							c0.44-0.02,0.65-0.34,0.69-0.65c0.04-0.28-0.05-0.57-0.24-0.64l2.55-7.26c0.05-0.15,0.2-0.26,0.35-0.27l2.35-0.08
							c0.2-0.01,0.35,0.15,0.35,0.35c-0.01,0.2-0.18,0.37-0.38,0.38l-2.08,0.07l-2.35,6.74
							C297.1,102.45,296.31,103.61,295.57,103.63z"/>
						<path class="st1" d="M291.04,104.99c-0.02,0.46-0.4,0.85-0.85,0.86c-0.45,0.01-0.8-0.35-0.79-0.81
							c0.02-0.46,0.4-0.85,0.85-0.86C290.71,104.16,291.06,104.53,291.04,104.99z"/>
						<path class="st1" d="M295.19,104.86c-0.02,0.46-0.4,0.85-0.86,0.86c-0.46,0.01-0.81-0.35-0.79-0.81
							c0.02-0.46,0.4-0.85,0.86-0.86C294.85,104.04,295.2,104.4,295.19,104.86z"/>
						<path class="st1" d="M292.58,101.72c-0.2,0.01-0.35-0.15-0.34-0.35l0.19-4.74c0.01-0.2,0.17-0.37,0.37-0.38
							c0.2-0.01,0.35,0.15,0.34,0.35l-0.19,4.74C292.94,101.55,292.78,101.71,292.58,101.72z"/>
						<path class="st1" d="M290.59,101.78c-0.16,0.01-0.31-0.1-0.34-0.27l-0.86-4.7c-0.04-0.19,0.09-0.39,0.29-0.44
							c0.19-0.05,0.38,0.06,0.42,0.26l0.86,4.7c0.04,0.19-0.09,0.39-0.29,0.44C290.64,101.78,290.62,101.78,290.59,101.78z"/>
						<path class="st1" d="M294.49,101.66c-0.02,0-0.03,0-0.05,0c-0.19-0.02-0.32-0.2-0.29-0.4l0.87-4.77
							c0.04-0.2,0.22-0.34,0.42-0.32c0.19,0.02,0.32,0.2,0.29,0.4l-0.87,4.77C294.83,101.52,294.67,101.65,294.49,101.66z"/>
						<path class="st1" d="M297.15,99.23l-9.3,0.31c-0.2,0.01-0.35-0.15-0.34-0.35s0.17-0.37,0.37-0.37l9.3-0.31
							c0.2-0.01,0.35,0.15,0.34,0.35C297.51,99.06,297.35,99.22,297.15,99.23z"/>
					</g>
					<path class="st1" d="M301.32,94.9l-2.12,0.08l0.04-1.1l2.12-0.08c0.27-0.01,0.48,0.21,0.47,0.48l0,0.1
						C301.82,94.66,301.59,94.89,301.32,94.9z"/>
				</g>
			</g>
			<polygon class="st17" points="263.1,106.73 215.17,108.13 215.36,103.47 263.3,101.93 			"/>
			<g>
				<path class="st16" d="M188.72,138.51c-1.67,0-3.23-0.67-4.41-1.88c-1.31-1.35-2.02-3.28-1.94-5.3c0.16-3.97,3.29-7.26,6.96-7.33
					l102.55-1.96c2.01-0.04,3.88,0.72,5.26,2.13c1.41,1.44,2.14,3.39,2.06,5.49c-0.17,4.25-3.72,7.75-7.9,7.79l0-0.39l0,0.39
					l-102.52,1.06C188.76,138.51,188.74,138.51,188.72,138.51z M292.03,122.84c-0.04,0-0.09,0-0.13,0l-102.55,1.96
					c-3.27,0.06-6.04,3.01-6.19,6.57c-0.07,1.8,0.55,3.52,1.71,4.71c1.04,1.07,2.43,1.66,3.9,1.64l102.52-1.06
					c3.77-0.04,6.97-3.2,7.12-7.04c0.08-1.87-0.57-3.62-1.83-4.9C295.38,123.5,293.77,122.84,292.03,122.84z"/>
				<path class="st16" d="M291.29,137.06l-8.3,0.09l0.59-14.55l8.3-0.16c3.98-0.08,7.08,3.15,6.92,7.2v0
					C298.64,133.7,295.27,137.02,291.29,137.06z"/>
			</g>
			<g>
				<g>
					<g>
						<path class="st18" d="M230.5,201.39L183.64,200c-1.28-0.04-2.27-1.2-2.21-2.59l1.81-44.18c0.06-1.39,1.14-2.52,2.42-2.52
							l46.92-0.1c1.36,0,2.42,1.16,2.36,2.6l-1.87,45.65C233.01,200.3,231.86,201.43,230.5,201.39z"/>
						<polygon class="st16" points="243.64,151 243.39,157.04 299.27,157.14 299.52,150.89 						"/>
						<polygon class="st16" points="243.26,160.22 243.02,166.26 293.99,166.64 294.25,160.41 						"/>
						<polygon class="st16" points="242.89,169.44 242.64,175.48 282.96,176.01 283.21,169.83 						"/>
					</g>
					<g>
						<path class="st16" d="M295.12,203.31l-50.95-1.51c-1.17-0.03-2.08-1.06-2.03-2.28l0.47-11.56c0.05-1.22,1.04-2.2,2.21-2.18
							l50.98,1c1.25,0.02,2.22,1.07,2.17,2.34l-0.49,11.96C297.42,202.35,296.36,203.35,295.12,203.31z"/>
						<g>
							<path class="st1" d="M247.91,195.51l-0.41,1.12l-1-0.03l1.8-4.87l1.28,0.03l1.48,4.96l-1.08-0.03l-0.34-1.15L247.91,195.51z
								 M249.45,194.68c-0.29-1.05-0.48-1.72-0.58-2.17l-0.01,0c-0.14,0.48-0.4,1.25-0.7,2.13L249.45,194.68z"/>
							<path class="st1" d="M251.85,191.82l1.88,0.04c1.38,0.03,2.25,1,2.19,2.46c-0.06,1.44-0.99,2.51-2.44,2.47l-1.83-0.05
								L251.85,191.82z M252.71,195.91l0.77,0.02c0.91,0.02,1.34-0.68,1.38-1.64c0.03-0.81-0.32-1.56-1.24-1.58l-0.78-0.02
								L252.71,195.91z"/>
							<path class="st1" d="M256.92,191.94l1.89,0.04c1.38,0.03,2.26,1,2.2,2.47c-0.06,1.45-0.99,2.52-2.45,2.48l-1.84-0.05
								L256.92,191.94z M257.78,196.05l0.77,0.02c0.91,0.02,1.35-0.68,1.39-1.64c0.03-0.81-0.32-1.56-1.25-1.58l-0.78-0.02
								L257.78,196.05z"/>
							<path class="st1" d="M264.62,193l-1.46-0.03l0.04-0.88l3.96,0.09l-0.04,0.88l-1.46-0.03l-0.17,4.09l-1.04-0.03L264.62,193z"
								/>
							<path class="st1" d="M271.99,194.77c-0.06,1.39-0.91,2.56-2.49,2.52c-1.52-0.04-2.26-1.19-2.21-2.62
								c0.06-1.44,0.98-2.54,2.48-2.5C271.2,192.2,272.06,193.24,271.99,194.77z M268.38,194.67c-0.04,0.98,0.34,1.72,1.2,1.75
								c0.93,0.02,1.3-0.77,1.33-1.66c0.04-0.95-0.31-1.7-1.21-1.72C268.83,193.02,268.42,193.7,268.38,194.67z"/>
							<path class="st1" d="M278.71,195.91c-0.23,0.93-0.94,1.6-2.17,1.57c-1.55-0.04-2.23-1.18-2.17-2.61
								c0.06-1.37,0.86-2.58,2.43-2.54c1.3,0.03,1.9,0.82,1.99,1.67l-1.06-0.03c-0.09-0.39-0.34-0.79-1-0.8
								c-0.87-0.02-1.23,0.78-1.27,1.69c-0.03,0.84,0.22,1.74,1.16,1.77c0.69,0.02,0.92-0.45,1.03-0.74L278.71,195.91z"/>
							<path class="st1" d="M280.43,196.35l-0.42,1.15l-1.04-0.03l1.87-4.97l1.33,0.03l1.54,5.07l-1.12-0.03l-0.36-1.17
								L280.43,196.35z M282.03,195.5c-0.31-1.07-0.5-1.75-0.6-2.21l-0.01,0c-0.14,0.49-0.42,1.27-0.73,2.18L282.03,195.5z"/>
							<path class="st1" d="M285.45,195.62l-0.08,2.02l-1.04-0.03l0.21-5.03l2.17,0.05c1.07,0.03,1.63,0.64,1.6,1.42
								c-0.03,0.67-0.4,1.03-0.77,1.17c0.24,0.1,0.6,0.37,0.56,1.27l-0.01,0.25c-0.01,0.34-0.03,0.72,0.03,0.96l-1.02-0.03
								c-0.08-0.22-0.08-0.6-0.05-1.14l0-0.07c0.02-0.55-0.1-0.81-0.9-0.83L285.45,195.62z M285.48,194.75l0.89,0.02
								c0.58,0.01,0.82-0.21,0.84-0.62c0.02-0.41-0.24-0.65-0.76-0.66l-0.92-0.02L285.48,194.75z"/>
							<path class="st1" d="M290.31,193.61l-1.51-0.04l0.04-0.89l4.09,0.1l-0.04,0.89l-1.51-0.04l-0.17,4.15l-1.07-0.03
								L290.31,193.61z"/>
						</g>
					</g>
				</g>
				<g>
					<path class="st19" d="M218.51,187.12l-0.91-0.31c0.02-0.07,1.91-7.33,2.16-10.1c0.29-3.34-0.57-6.3-2.48-8.56
						c-2.18-2.58-5.59-4.07-9.34-4.09c-3.65-0.02-6.86,1.27-9.06,3.65c-2.01,2.18-3.06,5.17-3.02,8.65c0.03,2.75,1.05,9.7,1.06,9.77
						l-0.92,0.18c-0.04-0.29-1.04-7.09-1.07-9.91c-0.04-3.76,1.1-7.01,3.3-9.39c2.38-2.58,5.84-3.99,9.75-3.97
						c4.01,0.02,7.66,1.63,10.02,4.41c2.09,2.47,3.03,5.69,2.72,9.32C220.46,179.67,218.6,186.83,218.51,187.12z"/>
					<g>
						<g>
							<path class="st19" d="M196.24,181.65l0.93,7.03c0.1,0.76,0.72,1.29,1.41,1.26l-1.31-9.99
								C196.59,180.16,196.14,180.89,196.24,181.65z"/>
							<path class="st19" d="M198.75,189.92l2.65-0.47l-1.33-10.03l-2.65,0.49c-0.05,0.01-0.1,0.02-0.15,0.04l1.31,9.99
								C198.64,189.94,198.7,189.93,198.75,189.92z"/>
						</g>
						<g>
							<path class="st20" d="M202.07,190.45L202.07,190.45c-0.81,0.14-1.56-0.44-1.68-1.31l-1.2-9.05
								c-0.12-0.87,0.45-1.69,1.26-1.84l0,0c0.81-0.15,1.56,0.43,1.68,1.3l1.21,9.07C203.44,189.48,202.88,190.31,202.07,190.45z"/>
						</g>
					</g>
					<g>
						<g>
							<path class="st19" d="M218.75,182.15l-1.71,7.04c-0.18,0.76-0.87,1.25-1.58,1.16l2.41-9.99
								C218.55,180.62,218.94,181.38,218.75,182.15z"/>
							<path class="st19" d="M215.3,190.32l-2.64-0.67l2.42-9.99l2.65,0.65c0.05,0.01,0.1,0.03,0.15,0.05l-2.41,9.99
								C215.41,190.35,215.36,190.34,215.3,190.32z"/>
						</g>
						<g>
							<path class="st20" d="M211.89,190.61L211.89,190.61c0.8,0.2,1.63-0.33,1.84-1.2l2.19-9.03c0.21-0.87-0.27-1.73-1.08-1.93l0,0
								c-0.81-0.2-1.63,0.34-1.84,1.21l-2.18,9.01C210.6,189.54,211.08,190.4,211.89,190.61z"/>
						</g>
					</g>
				</g>
			</g>
			<g>
				<g>
					<g>
						<path class="st18" d="M227.72,269.31l-46.77-3.39c-1.28-0.09-2.26-1.29-2.21-2.69l1.81-44.18c0.06-1.39,1.14-2.48,2.41-2.42
							l46.84,1.89c1.36,0.05,2.41,1.26,2.36,2.7l-1.87,45.65C230.23,268.33,229.08,269.41,227.72,269.31z"/>
						<polygon class="st16" points="240.84,219.39 240.6,225.43 296.37,227.91 296.63,221.66 						"/>
						<polygon class="st16" points="240.47,228.61 240.22,234.65 291.11,237.21 291.36,230.98 						"/>
						<polygon class="st16" points="240.09,237.83 239.84,243.87 280.09,246.12 280.35,239.93 						"/>
					</g>
					<g>
						<path class="st16" d="M292.23,273.98l-50.87-3.68c-1.17-0.08-2.07-1.15-2.02-2.37l0.47-11.56c0.05-1.22,1.04-2.16,2.2-2.08
							l50.89,3.18c1.24,0.08,2.21,1.17,2.16,2.43l-0.49,11.96C294.52,273.12,293.47,274.07,292.23,273.98z"/>
						<g>
							<path class="st1" d="M245.1,264.16l-0.41,1.11l-1-0.07l1.79-4.81l1.28,0.08l1.47,5.04l-1.07-0.07l-0.34-1.16L245.1,264.16z
								 M246.64,263.39c-0.29-1.07-0.48-1.74-0.57-2.19l-0.01,0c-0.14,0.48-0.4,1.23-0.7,2.11L246.64,263.39z"/>
							<path class="st1" d="M249.04,260.63l1.88,0.12c1.37,0.09,2.24,1.1,2.18,2.56c-0.06,1.44-0.98,2.47-2.43,2.37l-1.83-0.13
								L249.04,260.63z M249.89,264.77l0.77,0.05c0.91,0.06,1.34-0.62,1.38-1.58c0.03-0.81-0.31-1.57-1.24-1.63l-0.77-0.05
								L249.89,264.77z"/>
							<path class="st1" d="M254.09,260.97l1.89,0.12c1.38,0.09,2.26,1.1,2.2,2.57c-0.06,1.45-0.99,2.48-2.45,2.38l-1.84-0.13
								L254.09,260.97z M254.95,265.12l0.77,0.05c0.91,0.06,1.35-0.62,1.39-1.58c0.03-0.81-0.32-1.58-1.25-1.64l-0.78-0.05
								L254.95,265.12z"/>
							<path class="st1" d="M261.78,262.36l-1.46-0.1l0.04-0.88l3.95,0.26l-0.04,0.88l-1.46-0.1l-0.17,4.09l-1.04-0.07
								L261.78,262.36z"/>
							<path class="st1" d="M269.14,264.44c-0.06,1.39-0.91,2.53-2.48,2.42c-1.52-0.1-2.26-1.29-2.2-2.72
								c0.06-1.44,0.98-2.5,2.47-2.4C268.35,261.83,269.21,262.91,269.14,264.44z M265.54,264.19c-0.04,0.98,0.34,1.74,1.2,1.8
								c0.93,0.06,1.29-0.72,1.33-1.61c0.04-0.95-0.31-1.71-1.21-1.77C265.98,262.56,265.58,263.22,265.54,264.19z"/>
							<path class="st1" d="M275.85,265.87c-0.23,0.92-0.94,1.56-2.17,1.48c-1.54-0.11-2.22-1.28-2.17-2.7
								c0.06-1.37,0.86-2.55,2.43-2.44c1.3,0.09,1.9,0.91,1.98,1.76l-1.05-0.07c-0.09-0.4-0.34-0.8-1-0.85
								c-0.87-0.06-1.23,0.73-1.27,1.64c-0.03,0.84,0.22,1.75,1.16,1.82c0.69,0.05,0.92-0.41,1.03-0.7L275.85,265.87z"/>
							<path class="st1" d="M277.56,266.38l-0.42,1.13l-1.04-0.07l1.86-4.9l1.33,0.09l1.54,5.14l-1.12-0.08l-0.36-1.19
								L277.56,266.38z M279.16,265.6c-0.3-1.09-0.5-1.78-0.6-2.24l-0.01,0c-0.14,0.49-0.41,1.26-0.73,2.15L279.16,265.6z"/>
							<path class="st1" d="M282.58,265.87l-0.08,2.02l-1.04-0.07l0.21-5.03l2.16,0.14c1.07,0.07,1.63,0.71,1.6,1.49
								c-0.03,0.67-0.4,1.01-0.76,1.14c0.24,0.11,0.6,0.39,0.56,1.3l-0.01,0.25c-0.01,0.34-0.03,0.72,0.03,0.96l-1.02-0.07
								c-0.08-0.23-0.08-0.61-0.05-1.14l0-0.07c0.02-0.55-0.1-0.82-0.9-0.87L282.58,265.87z M282.61,265l0.89,0.06
								c0.58,0.04,0.82-0.17,0.83-0.59c0.02-0.41-0.24-0.66-0.76-0.7l-0.91-0.06L282.61,265z"/>
							<path class="st1" d="M287.43,264.06l-1.51-0.1l0.04-0.89l4.08,0.27l-0.04,0.89l-1.5-0.1l-0.17,4.15l-1.07-0.07L287.43,264.06
								z"/>
						</g>
					</g>
				</g>
				<g>
					<path class="st19" d="M217.46,254.67c-0.01-4.33-8.43-7.54-8.43-7.54s-7.33-10.07-10.34-15.04c-5.53,2.16-6.94,5.09-6.35,10.34
						c2.74-2.42,7.07,2.55,12.26,11.42L217.46,254.67z"/>
					<path class="st19" d="M192.34,242.43l1.35,11.18l0.87,0.06c0.45-4.98,1.22-10.61,4.05-8.63
						C198.79,240.57,192.43,240.22,192.34,242.43z"/>
				</g>
			</g>
			<g>
				<g>
					<g>
						<path class="st18" d="M224.88,338.78l-46.69-5.43c-1.27-0.15-2.26-1.4-2.2-2.79l1.81-44.18c0.06-1.39,1.14-2.43,2.41-2.32
							l46.75,3.94c1.36,0.11,2.41,1.37,2.35,2.81l-1.87,45.65C227.38,337.9,226.23,338.94,224.88,338.78z"/>
						<polygon class="st16" points="237.98,289.34 237.74,295.38 293.41,300.29 293.67,294.05 						"/>
						<polygon class="st16" points="237.61,298.56 237.36,304.6 288.15,309.38 288.41,303.15 						"/>
						<polygon class="st16" points="237.23,307.78 236.98,313.82 277.16,317.83 277.41,311.64 						"/>
					</g>
					<g>
						<path class="st16" d="M289.27,346.27l-50.78-5.9c-1.17-0.14-2.07-1.24-2.02-2.46l0.47-11.56c0.05-1.22,1.03-2.12,2.2-1.99
							l50.8,5.4c1.24,0.13,2.21,1.27,2.16,2.53l-0.49,11.96C291.56,345.5,290.51,346.41,289.27,346.27z"/>
						<g>
							<path class="st1" d="M242.23,334.38l-0.41,1.09l-1-0.11l1.79-4.74l1.27,0.14l1.47,5.11l-1.07-0.12l-0.34-1.18L242.23,334.38z
								 M243.76,333.68c-0.29-1.08-0.48-1.77-0.57-2.22l-0.01,0c-0.14,0.47-0.4,1.22-0.7,2.08L243.76,333.68z"/>
							<path class="st1" d="M246.16,331.01l1.87,0.21c1.37,0.15,2.24,1.2,2.18,2.66c-0.06,1.44-0.98,2.43-2.43,2.27l-1.83-0.21
								L246.16,331.01z M247.01,335.2l0.77,0.09c0.9,0.1,1.34-0.56,1.38-1.52c0.03-0.81-0.31-1.59-1.24-1.69l-0.77-0.09
								L247.01,335.2z"/>
							<path class="st1" d="M251.21,331.57l1.89,0.21c1.38,0.15,2.25,1.2,2.19,2.67c-0.06,1.45-0.99,2.44-2.44,2.27l-1.84-0.21
								L251.21,331.57z M252.06,335.76l0.77,0.09c0.91,0.1,1.35-0.56,1.39-1.53c0.03-0.81-0.32-1.59-1.25-1.7l-0.78-0.09
								L252.06,335.76z"/>
							<path class="st1" d="M258.88,333.29l-1.46-0.16l0.04-0.88l3.95,0.43l-0.04,0.88l-1.45-0.16l-0.17,4.09l-1.04-0.12
								L258.88,333.29z"/>
							<path class="st1" d="M266.23,335.71c-0.06,1.39-0.91,2.49-2.48,2.32c-1.51-0.17-2.26-1.39-2.2-2.82
								c0.06-1.44,0.98-2.46,2.47-2.3C265.44,333.06,266.29,334.18,266.23,335.71z M262.63,335.3c-0.04,0.98,0.34,1.76,1.19,1.85
								c0.93,0.1,1.29-0.66,1.33-1.55c0.04-0.95-0.31-1.73-1.2-1.83C263.08,333.68,262.67,334.33,262.63,335.3z"/>
							<path class="st1" d="M272.92,337.43c-0.23,0.92-0.94,1.52-2.16,1.38c-1.54-0.17-2.22-1.38-2.16-2.8
								c0.06-1.37,0.86-2.51,2.42-2.34c1.3,0.14,1.89,0.99,1.98,1.85l-1.05-0.12c-0.09-0.4-0.33-0.82-1-0.89
								c-0.87-0.1-1.23,0.67-1.27,1.59c-0.03,0.84,0.22,1.77,1.15,1.87c0.69,0.08,0.92-0.37,1.03-0.66L272.92,337.43z"/>
							<path class="st1" d="M274.63,338.02l-0.42,1.11l-1.04-0.12l1.86-4.83l1.33,0.15l1.53,5.22l-1.12-0.13l-0.36-1.2
								L274.63,338.02z M276.23,337.3c-0.3-1.1-0.5-1.8-0.6-2.27l-0.01,0c-0.14,0.48-0.41,1.24-0.73,2.12L276.23,337.3z"/>
							<path class="st1" d="M279.64,337.72l-0.08,2.02l-1.04-0.12l0.21-5.03l2.16,0.24c1.07,0.12,1.62,0.78,1.59,1.56
								c-0.03,0.67-0.4,1-0.76,1.11c0.24,0.12,0.6,0.42,0.56,1.33l-0.01,0.25c-0.01,0.34-0.03,0.72,0.03,0.97l-1.01-0.11
								c-0.08-0.23-0.08-0.61-0.05-1.14l0-0.07c0.02-0.55-0.1-0.83-0.89-0.91L279.64,337.72z M279.67,336.85l0.89,0.1
								c0.58,0.06,0.82-0.14,0.83-0.55c0.02-0.41-0.24-0.67-0.76-0.73l-0.91-0.1L279.67,336.85z"/>
							<path class="st1" d="M284.48,336.12l-1.5-0.17l0.04-0.89l4.07,0.45l-0.04,0.89l-1.5-0.17l-0.17,4.15l-1.07-0.12
								L284.48,336.12z"/>
						</g>
					</g>
				</g>
				<g>
					<g>
						<path class="st21" d="M206.32,295.65c-0.17-0.63-0.27-1.28-0.3-1.93l-0.49-0.04c-0.04,0.58-0.18,1.19-0.28,1.51
							c-0.4,1.31-1.39,2.24-2.53,2.2c-1.13-0.17-2.04-1.27-2.32-2.63c-0.07-0.34-0.16-0.96-0.15-1.54l-0.48-0.04
							c-0.09,0.64-0.23,1.27-0.45,1.86c-0.55,1.45-1.43,2.63-2.45,3.57l0.46,7.68l4.82,0.47l0.42,0.04l4.85,0.47l1.09-7.58
							C207.54,298.54,206.75,297.19,206.32,295.65z"/>
						<path class="st21" d="M212.85,328c-2.27,2.1-19.95,0.36-22.48-2.48c1.48-7.05,3.33-13.83,6.95-19.25l10.09,0.98
							C210.28,312.57,211.75,320,212.85,328z"/>
					</g>
					<path class="st1" d="M204.2,308.72c-0.32,0-0.67-0.02-1.05-0.05c-4.09-0.4-5.94-2.42-6.01-2.51c-0.06-0.06-0.05-0.16,0.01-0.22
						c0.06-0.06,0.16-0.05,0.22,0.01c0.02,0.02,1.85,2.02,5.81,2.4c3.53,0.35,4.08-1.13,4.08-1.15c0.03-0.08,0.12-0.13,0.2-0.1
						c0.08,0.03,0.13,0.11,0.1,0.2C207.54,307.37,207.06,308.72,204.2,308.72z"/>
					<path class="st1" d="M202.64,311.56c-0.1,0-0.23-0.05-0.35-0.23c-0.69-1.03,1.22-2.69,1.44-2.88l0.35-0.3l-0.1,0.45
						c-0.14,0.66-0.66,2.83-1.28,2.94C202.68,311.56,202.66,311.56,202.64,311.56z M203.56,309.04c-0.6,0.59-1.38,1.57-1.01,2.12
						c0.04,0.06,0.08,0.09,0.1,0.09C202.89,311.2,203.28,310.15,203.56,309.04z"/>
					<path class="st1" d="M203.65,308.96l0.02-0.39c0.01-0.1,0.16-2.42,1.05-3.08c0.23-0.17,0.48-0.22,0.76-0.15
						c0.33,0.08,0.44,0.27,0.48,0.41c0.22,0.87-1.8,2.74-2.03,2.95L203.65,308.96z M205.26,305.62c-0.12,0-0.24,0.04-0.35,0.12
						c-0.53,0.39-0.79,1.66-0.89,2.44c0.79-0.77,1.75-1.9,1.63-2.36c-0.01-0.06-0.06-0.14-0.24-0.18
						C205.36,305.62,205.31,305.62,205.26,305.62z"/>
					<path class="st1" d="M206.59,311.61c-0.06,0-0.12-0.04-0.15-0.1c-0.81-2.06-2.66-2.78-2.67-2.79c-0.08-0.03-0.12-0.12-0.09-0.2
						c0.03-0.08,0.12-0.12,0.2-0.09c0.08,0.03,1.99,0.78,2.85,2.97c0.03,0.08-0.01,0.17-0.09,0.2
						C206.63,311.61,206.61,311.61,206.59,311.61z"/>
				</g>
			</g>
		</g>
	</g>
	<g>
		<g>
			<g>
				<path class="st22" d="M153.28,265.06c-0.03,0-0.06,0-0.09,0l-68.31-4.52c-0.38-0.03-0.74-0.22-0.97-0.53
					c-0.23-0.31-0.31-0.7-0.23-1.08c2.91-12.7,6.61-20.86,11.29-24.95c0.26-0.23,0.6-0.34,0.94-0.32l68.59,3.99
					c0.49,0.03,0.93,0.33,1.13,0.78c0.2,0.45,0.13,0.98-0.18,1.36c-5.74,7.08-9.4,15.21-10.87,24.17
					C154.47,264.59,153.92,265.06,153.28,265.06z M86.61,258l65.58,4.34c1.51-8.12,4.76-15.58,9.67-22.22l-65.54-3.81
					C92.47,239.95,89.21,247.23,86.61,258z"/>
				<path class="st23" d="M161.7,237.32c-0.23-0.66-0.65-1.33-1.3-1.39l-62.03-3.86c-2.62,0.47-2.62,5.71-0.35,5.85l62.03,3.86
					c0.74-0.15,1.23-0.71,1.53-1.59C160.41,240.14,160.1,237.34,161.7,237.32z"/>
			</g>
			<g>
				<path class="st24" d="M85.95,396.41L85.95,396.41c-2.58,0-4.69-2.11-4.69-4.69v-8.38c0-2.58,2.11-4.69,4.69-4.69l0,0
					c2.58,0,4.69,2.11,4.69,4.69v8.38C90.64,394.3,88.53,396.41,85.95,396.41z"/>
				<polygon class="st25" points="81.25,383.34 81.25,394.38 82,393.85 82,382.44 				"/>
				<g>
					<path class="st26" d="M85.03,384.02c0,0,4.58-1.08,6.71,3.13c2.13,4.21-4.19,11.39-5.75,11.67c-1.56,0.28-4.52-0.06-5.9-2.81
						C78.7,393.26,81.5,385.52,85.03,384.02z"/>
					<g>
						
							<ellipse transform="matrix(0.349 -0.9371 0.9371 0.349 -311.3629 333.4797)" class="st26" cx="84.34" cy="390.84" rx="7.13" ry="4.74"/>
						
							<ellipse transform="matrix(0.349 -0.9371 0.9371 0.349 -310.4749 336.9487)" class="st26" cx="87.28" cy="391.94" rx="7.13" ry="4.74"/>
						
							<ellipse transform="matrix(0.349 -0.9371 0.9371 0.349 -310.4749 336.9488)" class="st24" cx="87.28" cy="391.94" rx="5.95" ry="3.96"/>
					</g>
				</g>
				<g>
					<path class="st24" d="M79.39,383.06h-0.02v-0.15C79.38,382.96,79.38,383.01,79.39,383.06z"/>
				</g>
				<path class="st25" d="M85.95,378.64L85.95,378.64c-2.58,0-4.69,2.08-4.69,4.62l0.74,1.45c0-2.59,3.89-2.59,3.89,0l0.07,9.1
					c0,2.57,4.47,0.76,4.69-2.02v-8.53C90.64,380.72,88.53,378.64,85.95,378.64z"/>
			</g>
			<g>
				<path class="st27" d="M25.09,384.55L25.09,384.55c-2.38,0-4.33-1.95-4.33-4.33v-7.72c0-2.38,1.95-4.33,4.33-4.33h0
					c2.38,0,4.33,1.95,4.33,4.33v7.72C29.42,382.61,27.47,384.55,25.09,384.55z"/>
				<polygon class="st25" points="20.76,372.5 20.76,382.68 21.45,382.2 21.45,371.68 				"/>
				<g>
					<path class="st26" d="M24.24,373.13c0,0,4.22-1,6.18,2.89s-3.86,10.49-5.3,10.75c-1.44,0.26-4.17-0.06-5.44-2.59
						C18.41,381.65,20.99,374.52,24.24,373.13z"/>
					<g>
						
							<ellipse transform="matrix(0.349 -0.9371 0.9371 0.349 -340.1978 269.1286)" class="st26" cx="23.6" cy="379.42" rx="6.57" ry="4.37"/>
						
							<ellipse transform="matrix(0.349 -0.9371 0.9371 0.349 -339.3794 272.3243)" class="st26" cx="26.31" cy="380.43" rx="6.57" ry="4.37"/>
						
							<ellipse transform="matrix(0.349 -0.9371 0.9371 0.349 -339.3796 272.3251)" class="st24" cx="26.31" cy="380.43" rx="5.48" ry="3.65"/>
					</g>
				</g>
				<g>
					<path class="st24" d="M19.05,372.25h-0.01v-0.14C19.03,372.15,19.04,372.2,19.05,372.25z"/>
				</g>
				<path class="st25" d="M25.09,368.18L25.09,368.18c-2.38,0-4.33,1.92-4.33,4.26l0.68,1.33c0-2.39,3.58-2.39,3.58,0l0.06,8.39
					c0,2.37,4.12,0.7,4.33-1.86v-7.86C29.42,370.09,27.47,368.18,25.09,368.18z"/>
			</g>
			<g>
				<path class="st27" d="M82.68,358.06L82.68,358.06c-2.12,0-3.86-1.74-3.86-3.86v-6.89c0-2.12,1.74-3.86,3.86-3.86l0,0
					c2.12,0,3.86,1.74,3.86,3.86v6.89C86.54,356.32,84.81,358.06,82.68,358.06z"/>
				<polygon class="st25" points="78.82,347.3 78.82,356.38 79.44,355.95 79.44,346.56 				"/>
				<g>
					<path class="st26" d="M81.93,347.86c0,0,3.77-0.89,5.52,2.57c1.75,3.46-3.45,9.36-4.73,9.59s-3.72-0.05-4.85-2.31
						C76.73,355.46,79.03,349.1,81.93,347.86z"/>
					<g>
						
							<ellipse transform="matrix(0.349 -0.9371 0.9371 0.349 -278.2842 306.3614)" class="st26" cx="81.36" cy="353.47" rx="5.86" ry="3.9"/>
						
							<ellipse transform="matrix(0.349 -0.9371 0.9371 0.349 -277.5542 309.2145)" class="st26" cx="83.78" cy="354.37" rx="5.86" ry="3.9"/>
						
							<ellipse transform="matrix(0.349 -0.9371 0.9371 0.349 -277.5541 309.2138)" class="st24" cx="83.78" cy="354.37" rx="4.89" ry="3.25"/>
					</g>
				</g>
				<g>
					<path class="st24" d="M77.29,347.08h-0.01v-0.13C77.28,346.99,77.29,347.03,77.29,347.08z"/>
				</g>
				<path class="st25" d="M82.68,343.44L82.68,343.44c-2.12,0-3.86,1.71-3.86,3.8l0.61,1.19c0-2.13,3.19-2.13,3.19,0l0.05,7.48
					c0,2.11,3.68,0.62,3.86-1.66v-7.02C86.54,345.15,84.81,343.44,82.68,343.44z"/>
			</g>
			<g>
				<path class="st27" d="M146.6,366.38L146.6,366.38c-2.12,0-3.86-1.74-3.86-3.86v-6.89c0-2.12,1.74-3.86,3.86-3.86l0,0
					c2.12,0,3.86,1.74,3.86,3.86v6.89C150.46,364.65,148.72,366.38,146.6,366.38z"/>
				<polygon class="st25" points="142.74,355.63 142.74,364.71 143.35,364.28 143.35,354.89 				"/>
				<g>
					<path class="st26" d="M145.84,356.19c0,0,3.77-0.89,5.52,2.57c1.75,3.46-3.45,9.36-4.73,9.59c-1.29,0.23-3.72-0.05-4.85-2.31
						C140.64,363.79,142.94,357.43,145.84,356.19z"/>
					<g>
						
							<ellipse transform="matrix(0.349 -0.9371 0.9371 0.349 -244.4803 371.6766)" class="st26" cx="145.27" cy="361.8" rx="5.86" ry="3.9"/>
						
							<ellipse transform="matrix(0.349 -0.9371 0.9371 0.349 -243.7501 374.5299)" class="st26" cx="147.69" cy="362.7" rx="5.86" ry="3.9"/>
						
							<ellipse transform="matrix(0.349 -0.9371 0.9371 0.349 -243.7501 374.5305)" class="st24" cx="147.69" cy="362.7" rx="4.89" ry="3.25"/>
					</g>
				</g>
				<g>
					<path class="st24" d="M141.21,355.4h-0.01v-0.13C141.19,355.32,141.2,355.36,141.21,355.4z"/>
				</g>
				<path class="st25" d="M146.6,351.77L146.6,351.77c-2.12,0-3.86,1.71-3.86,3.8l0.61,1.19c0-2.13,3.19-2.13,3.19,0l-0.71,7.25
					c0,2.11,4.44,0.86,4.63-1.42v-7.02C150.46,353.48,148.72,351.77,146.6,351.77z"/>
			</g>
			<g>
				<path class="st28" d="M74.94,384.38c-1.04,0-2.08-0.1-3.12-0.31l-49.2-9.73c-1.48-0.29-2.56-1.5-2.69-3
					c-0.13-1.5,0.72-2.88,2.12-3.42l56.53-22.12c4.09-1.6,6.44-5.89,5.58-10.2l-2.86-14.35c-0.09-0.45,0.04-0.91,0.35-1.24
					c0.31-0.33,0.76-0.5,1.22-0.44l64.46,8.24c0.59,0.07,1.06,0.51,1.2,1.08l2.88,12.31c1.25,5.51-1.59,11.18-6.74,13.48
					l-63.21,28.28C79.38,383.91,77.17,384.38,74.94,384.38z M84.46,322.64l2.48,12.41c1.13,5.66-1.95,11.29-7.33,13.4l-56.53,22.12
					c-0.3,0.12-0.35,0.36-0.33,0.53c0.02,0.18,0.1,0.4,0.42,0.47l49.2,9.73c2.69,0.53,5.43,0.22,7.93-0.9l63.21-28.28
					c3.92-1.75,6.08-6.07,5.13-10.26l-2.66-11.35L84.46,322.64z"/>
			</g>
			<g>
				<g>
					<g>
						<path class="st22" d="M150.24,329.78c-0.02,0-0.05,0-0.07,0l-70.33-8.68c-0.32-0.04-0.55-0.32-0.52-0.64l4.58-61.78
							c0.02-0.33,0.31-0.57,0.64-0.55l70.33,4.52c0.16,0.01,0.31,0.08,0.41,0.2c0.1,0.12,0.16,0.28,0.15,0.44l-4.58,65.93
							c-0.01,0.16-0.09,0.32-0.22,0.42C150.51,329.73,150.38,329.78,150.24,329.78z M80.55,319.97l69.14,8.54l4.49-64.7l-69.14-4.45
							L80.55,319.97z"/>
						
							<rect x="117.83" y="246.19" transform="matrix(0.0817 -0.9967 0.9967 0.0817 -172.0107 376.2596)" class="st22" width="0.72" height="70.57"/>
						
							<rect x="116.23" y="268.39" transform="matrix(0.0947 -0.9955 0.9955 0.0947 -196.8245 391.0201)" class="st22" width="0.72" height="70.69"/>
					</g>
					<g>
						<path class="st22" d="M86.88,321.53c-0.01,0-0.01,0-0.02,0c-0.11-0.01-0.18-0.1-0.18-0.21l5.14-62.23
							c0.01-0.11,0.1-0.18,0.21-0.18c0.11,0.01,0.18,0.1,0.18,0.21l-5.14,62.23C87.06,321.45,86.98,321.53,86.88,321.53z"/>
						<path class="st22" d="M95.95,322.65c-0.01,0-0.01,0-0.02,0c-0.11-0.01-0.18-0.1-0.18-0.21l5.05-62.76
							c0.01-0.11,0.1-0.18,0.21-0.18c0.11,0.01,0.18,0.1,0.18,0.21l-5.05,62.76C96.13,322.57,96.05,322.65,95.95,322.65z"/>
						<path class="st22" d="M105.17,323.79c0,0-0.01,0-0.02,0c-0.11-0.01-0.18-0.1-0.18-0.21l4.96-63.29
							c0.01-0.11,0.1-0.19,0.21-0.18c0.11,0.01,0.18,0.1,0.18,0.21l-4.96,63.29C105.35,323.71,105.27,323.79,105.17,323.79z"/>
						<path class="st22" d="M114.54,324.95c0,0-0.01,0-0.01,0c-0.11-0.01-0.18-0.1-0.18-0.21l4.86-63.83
							c0.01-0.11,0.1-0.18,0.21-0.18c0.11,0.01,0.18,0.1,0.18,0.21l-4.86,63.83C114.73,324.88,114.64,324.95,114.54,324.95z"/>
						<g>
							<path class="st22" d="M124.08,326.13c0,0-0.01,0-0.01,0c-0.11-0.01-0.18-0.1-0.18-0.21l4.76-64.39
								c0.01-0.11,0.1-0.18,0.21-0.18c0.11,0.01,0.18,0.1,0.18,0.21l-4.76,64.39C124.26,326.06,124.18,326.13,124.08,326.13z"/>
						</g>
						<g>
							<path class="st22" d="M133.78,327.33c0,0-0.01,0-0.01,0c-0.11-0.01-0.18-0.1-0.18-0.2l4.66-64.95
								c0.01-0.11,0.1-0.19,0.2-0.18c0.11,0.01,0.18,0.1,0.18,0.2l-4.66,64.95C133.96,327.26,133.88,327.33,133.78,327.33z"/>
						</g>
						<g>
							<path class="st22" d="M143.64,328.55c0,0-0.01,0-0.01,0c-0.11-0.01-0.19-0.1-0.18-0.2l4.55-65.52
								c0.01-0.11,0.1-0.19,0.2-0.18c0.11,0.01,0.19,0.1,0.18,0.2l-4.55,65.52C143.83,328.48,143.74,328.55,143.64,328.55z"/>
						</g>
					</g>
					<path class="st23" d="M133.85,295.41l-33.18-2.88c-1.21-0.11-2.12-1.17-2.03-2.38l1.52-19.97l37.53,2.54l-1.42,20.63
						C136.18,294.58,135.09,295.51,133.85,295.41z"/>
				</g>
				<g>
					<g>
						<path class="st22" d="M21.34,341.71c-0.1,0-0.18-0.07-0.19-0.17l-6.18-56.37c-0.01-0.11,0.06-0.2,0.17-0.21
							c0.1-0.01,0.2,0.06,0.21,0.17l6.18,56.37c0.01,0.11-0.06,0.2-0.17,0.21C21.36,341.71,21.35,341.71,21.34,341.71z"/>
						<path class="st22" d="M26.68,339.8c-0.1,0-0.18-0.07-0.19-0.17l-5.24-56.85c-0.01-0.11,0.07-0.2,0.17-0.21
							c0.1-0.01,0.2,0.07,0.21,0.17l5.24,56.85c0.01,0.11-0.07,0.2-0.17,0.21C26.69,339.8,26.68,339.8,26.68,339.8z"/>
						<path class="st22" d="M32.03,337.87c-0.1,0-0.18-0.08-0.19-0.18l-4.28-57.33c-0.01-0.11,0.07-0.2,0.18-0.21
							c0.11-0.01,0.2,0.07,0.21,0.18l4.28,57.33c0.01,0.11-0.07,0.2-0.18,0.21C32.04,337.87,32.04,337.87,32.03,337.87z"/>
						<path class="st22" d="M37.41,335.94c-0.1,0-0.19-0.08-0.19-0.18l-3.32-57.82c-0.01-0.11,0.07-0.2,0.18-0.2
							c0.1,0,0.2,0.07,0.2,0.18l3.32,57.82c0.01,0.11-0.07,0.2-0.18,0.2C37.41,335.94,37.41,335.94,37.41,335.94z"/>
						<path class="st22" d="M42.81,334.01c-0.1,0-0.19-0.08-0.19-0.18l-2.35-58.31c0-0.11,0.08-0.19,0.18-0.2
							c0.11,0,0.19,0.08,0.2,0.18L43,333.81C43,333.91,42.92,334,42.81,334.01C42.81,334.01,42.81,334.01,42.81,334.01z"/>
						<path class="st22" d="M48.23,332.06c-0.1,0-0.19-0.08-0.19-0.19l-1.38-58.8c0-0.11,0.08-0.19,0.19-0.2
							c0.11,0,0.19,0.08,0.2,0.19l1.38,58.8C48.42,331.97,48.34,332.06,48.23,332.06C48.23,332.06,48.23,332.06,48.23,332.06z"/>
						<path class="st22" d="M53.67,330.11c-0.11,0-0.19-0.08-0.19-0.19l-0.39-59.3c0-0.11,0.08-0.19,0.19-0.19c0,0,0,0,0,0
							c0.11,0,0.19,0.08,0.19,0.19l0.39,59.3C53.86,330.02,53.77,330.11,53.67,330.11C53.67,330.11,53.67,330.11,53.67,330.11z"/>
						<path class="st22" d="M59.13,328.15C59.13,328.15,59.13,328.15,59.13,328.15c-0.11,0-0.19-0.09-0.19-0.19l0.61-59.8
							c0-0.11,0.09-0.19,0.19-0.19c0,0,0,0,0,0c0.11,0,0.19,0.09,0.19,0.19l-0.61,59.8C59.32,328.06,59.24,328.15,59.13,328.15z"/>
						<path class="st22" d="M64.62,326.18C64.62,326.18,64.62,326.18,64.62,326.18c-0.11,0-0.19-0.09-0.19-0.2l1.61-60.3
							c0-0.11,0.09-0.19,0.2-0.19c0.11,0,0.19,0.09,0.19,0.2l-1.61,60.3C64.81,326.09,64.72,326.18,64.62,326.18z"/>
						<path class="st22" d="M70.13,324.2C70.13,324.2,70.12,324.2,70.13,324.2c-0.11,0-0.2-0.09-0.19-0.2l2.63-60.81
							c0-0.11,0.09-0.19,0.2-0.18c0.11,0,0.19,0.09,0.18,0.2l-2.63,60.81C70.32,324.12,70.23,324.2,70.13,324.2z"/>
						<path class="st22" d="M75.66,322.21c0,0-0.01,0-0.01,0c-0.11-0.01-0.19-0.1-0.18-0.2l3.65-61.33c0.01-0.11,0.1-0.19,0.2-0.18
							c0.11,0.01,0.19,0.1,0.18,0.2l-3.65,61.33C75.85,322.13,75.76,322.21,75.66,322.21z"/>
					</g>
					<g>
						<path class="st22" d="M15.98,344.04c-0.11,0-0.22-0.03-0.31-0.09c-0.15-0.1-0.26-0.26-0.28-0.44l-6.84-56
							c-0.03-0.27,0.12-0.53,0.38-0.63l75.34-28.72c0.19-0.07,0.41-0.04,0.57,0.08c0.16,0.12,0.25,0.32,0.24,0.52l-4.58,61.78
							c-0.02,0.24-0.17,0.44-0.39,0.52l-63.93,22.95C16.12,344.03,16.05,344.04,15.98,344.04z M9.8,287.83l6.69,54.79l62.86-22.56
							l4.48-60.45L9.8,287.83z"/>
						
							<rect x="8.9" y="291.45" transform="matrix(0.937 -0.3494 0.3494 0.937 -98.9829 34.8716)" class="st22" width="76.54" height="0.72"/>
						
							<rect x="11.61" y="312.51" transform="matrix(0.938 -0.3466 0.3466 0.938 -105.4794 35.8951)" class="st22" width="72.02" height="0.72"/>
					</g>
				</g>
			</g>
			<g>
				<g>
					<path class="st22" d="M84.66,352.89c-0.01,0-0.02,0-0.03,0l-63.12-11.25c-0.1-0.02-0.17-0.12-0.15-0.22
						c0.02-0.1,0.12-0.17,0.22-0.16l63.12,11.25c0.1,0.02,0.17,0.12,0.15,0.22C84.84,352.82,84.76,352.89,84.66,352.89z"/>
					<path class="st22" d="M90.85,350.67c-0.01,0-0.02,0-0.03,0l-63.74-11.02c-0.1-0.02-0.17-0.12-0.16-0.22
						c0.02-0.1,0.12-0.17,0.22-0.16l63.74,11.02c0.1,0.02,0.17,0.12,0.16,0.22C91.03,350.6,90.95,350.67,90.85,350.67z"/>
					<path class="st22" d="M97.04,348.45c-0.01,0-0.02,0-0.03,0l-64.36-10.8c-0.1-0.02-0.17-0.12-0.16-0.22
						c0.02-0.1,0.12-0.17,0.22-0.16l64.36,10.8c0.1,0.02,0.17,0.12,0.16,0.22C97.22,348.38,97.14,348.45,97.04,348.45z"/>
					<path class="st22" d="M103.23,346.23c-0.01,0-0.02,0-0.03,0l-64.97-10.57c-0.1-0.02-0.18-0.12-0.16-0.22
						c0.02-0.1,0.11-0.18,0.22-0.16l64.97,10.57c0.1,0.02,0.18,0.12,0.16,0.22C103.4,346.16,103.32,346.23,103.23,346.23z"/>
					<path class="st22" d="M109.42,344.01c-0.01,0-0.02,0-0.03,0L43.8,333.66c-0.1-0.02-0.18-0.11-0.16-0.22
						c0.02-0.1,0.11-0.18,0.22-0.16l65.59,10.35c0.1,0.02,0.18,0.11,0.16,0.22C109.59,343.94,109.51,344.01,109.42,344.01z"/>
					<path class="st22" d="M115.6,341.79c-0.01,0-0.02,0-0.03,0l-66.21-10.12c-0.1-0.02-0.18-0.11-0.16-0.22
						c0.02-0.1,0.11-0.18,0.22-0.16l66.21,10.12c0.1,0.02,0.18,0.11,0.16,0.22C115.77,341.73,115.69,341.79,115.6,341.79z"/>
					<path class="st22" d="M121.78,339.58c-0.01,0-0.02,0-0.03,0l-66.82-9.89c-0.1-0.02-0.18-0.11-0.16-0.22
						c0.02-0.1,0.11-0.18,0.22-0.16l66.82,9.89c0.1,0.02,0.18,0.11,0.16,0.22C121.96,339.51,121.87,339.58,121.78,339.58z"/>
					<path class="st22" d="M127.96,337.36c-0.01,0-0.02,0-0.03,0l-67.44-9.67c-0.1-0.02-0.18-0.11-0.16-0.22
						c0.02-0.1,0.11-0.18,0.22-0.16l67.44,9.67c0.1,0.02,0.18,0.11,0.16,0.22C128.14,337.29,128.05,337.36,127.96,337.36z"/>
					<path class="st22" d="M134.14,335.14c-0.01,0-0.02,0-0.03,0l-68.06-9.44c-0.1-0.01-0.18-0.11-0.16-0.22
						c0.01-0.1,0.11-0.18,0.22-0.16l68.06,9.44c0.1,0.01,0.18,0.11,0.16,0.22C134.31,335.08,134.23,335.14,134.14,335.14z"/>
					<path class="st22" d="M140.31,332.93c-0.01,0-0.02,0-0.03,0l-68.67-9.22c-0.1-0.01-0.18-0.11-0.16-0.22
						c0.01-0.1,0.11-0.18,0.22-0.16l68.67,9.22c0.1,0.01,0.18,0.11,0.16,0.22C140.49,332.86,140.41,332.93,140.31,332.93z"/>
					<path class="st22" d="M146.49,330.71c-0.01,0-0.02,0-0.02,0l-69.29-8.99c-0.1-0.01-0.18-0.11-0.17-0.21
						c0.01-0.1,0.11-0.18,0.21-0.17l69.29,8.99c0.1,0.01,0.18,0.11,0.17,0.21C146.66,330.64,146.58,330.71,146.49,330.71z"/>
				</g>
				<g>
					
						<rect x="33.37" y="334.57" transform="matrix(0.9407 -0.3392 0.3392 0.9407 -109.5511 42.9949)" class="st22" width="69.74" height="0.72"/>
					
						<rect x="55.8" y="337.93" transform="matrix(0.9375 -0.3479 0.3479 0.9375 -112.0041 52.8598)" class="st22" width="70.76" height="0.72"/>
					<path class="st22" d="M80.04,355.2c-0.05,0-0.09,0-0.14-0.01l-64.05-10.91c-0.38-0.06-0.66-0.37-0.69-0.75
						c-0.03-0.38,0.19-0.73,0.55-0.86l63.93-22.95c0.12-0.04,0.26-0.06,0.39-0.04l70.33,8.68c0.39,0.05,0.69,0.35,0.73,0.74
						c0.04,0.39-0.18,0.75-0.55,0.88l-70.2,25.18C80.23,355.18,80.13,355.2,80.04,355.2z M19.27,343.15l60.69,10.34l66.68-23.92
						l-66.64-8.23L19.27,343.15z"/>
				</g>
			</g>
			<g>
				<g>
					<polygon class="st29" points="64.75,335.86 31.86,328.92 31.86,291.07 64.75,297.02 					"/>
					<polygon class="st30" points="31.86,291.07 45.5,286.64 55.62,283.86 86.94,289.2 64.75,297.02 					"/>
					<polygon class="st29" points="64.75,335.86 86.46,326.81 86.94,289.2 64.75,297.02 					"/>
					<path class="st31" d="M77.86,292.61c0,0-0.01,0-0.01,0l-32.36-5.91c-0.03-0.01-0.06-0.04-0.05-0.07
						c0.01-0.03,0.04-0.06,0.07-0.05l32.36,5.91c0.03,0.01,0.06,0.04,0.05,0.07C77.92,292.59,77.89,292.61,77.86,292.61z"/>
					<path class="st31" d="M64.92,297.17c-0.03,0-0.05-0.02-0.06-0.04c-0.01-0.03,0.01-0.07,0.04-0.08l21.91-7.71
						c0.03-0.01,0.07,0.01,0.08,0.04c0.01,0.03-0.01,0.07-0.04,0.08l-21.91,7.71C64.93,297.16,64.93,297.17,64.92,297.17z"/>
					<polygon class="st1" points="43.84,287.2 75.87,293.22 75.87,301.72 79.17,300.16 79.41,292.01 47.69,286.08 					"/>
				</g>
				<g>
					<polygon class="st29" points="111.4,336.89 78.51,329.95 78.51,292.1 111.4,298.05 					"/>
					<polygon class="st30" points="78.51,292.1 92.15,287.67 102.27,284.89 133.59,290.23 111.4,298.05 					"/>
					<polygon class="st32" points="111.4,336.89 133.11,327.84 133.59,290.23 111.4,298.05 					"/>
					<path class="st31" d="M124.51,293.65c0,0-0.01,0-0.01,0l-32.36-5.91c-0.03-0.01-0.06-0.04-0.05-0.07
						c0.01-0.03,0.04-0.06,0.07-0.05l32.36,5.91c0.03,0.01,0.06,0.04,0.05,0.07C124.57,293.63,124.54,293.65,124.51,293.65z"/>
					<path class="st31" d="M111.57,298.2c-0.03,0-0.05-0.02-0.06-0.04c-0.01-0.03,0.01-0.07,0.04-0.08l21.91-7.71
						c0.03-0.01,0.07,0.01,0.08,0.04c0.01,0.03-0.01,0.07-0.04,0.08l-21.91,7.71C111.58,298.2,111.58,298.2,111.57,298.2z"/>
					<polygon class="st1" points="90.49,288.24 122.52,294.25 122.52,302.75 125.83,301.2 126.06,293.05 94.34,287.11 					"/>
					<polygon class="st33" points="103.71,296.66 122.43,291.9 84.8,290.63 84.8,295.66 78.51,294.28 78.51,329.95 100.68,333.99 
											"/>
				</g>
				<g>
					<polygon class="st32" points="78.49,346.93 45.6,339.99 45.6,302.14 78.49,308.09 					"/>
					<polygon class="st30" points="45.6,302.14 59.24,297.71 69.36,294.93 100.68,300.27 78.49,308.09 					"/>
					<polygon class="st29" points="78.49,346.93 100.21,337.88 100.68,300.27 78.49,308.09 					"/>
					<path class="st31" d="M91.61,303.68c0,0-0.01,0-0.01,0l-32.36-5.91c-0.03-0.01-0.06-0.04-0.05-0.07
						c0.01-0.03,0.04-0.06,0.07-0.05l32.36,5.91c0.03,0.01,0.06,0.04,0.05,0.07C91.66,303.66,91.64,303.68,91.61,303.68z"/>
					<path class="st31" d="M78.66,308.24c-0.03,0-0.05-0.02-0.06-0.04c-0.01-0.03,0.01-0.07,0.04-0.08l21.91-7.71
						c0.03-0.01,0.07,0.01,0.08,0.04c0.01,0.03-0.01,0.07-0.04,0.08l-21.91,7.71C78.68,308.23,78.67,308.24,78.66,308.24z"/>
					<polygon class="st1" points="57.58,298.28 89.61,304.29 89.61,312.79 92.92,311.24 93.15,303.09 61.43,297.15 					"/>
					<polygon class="st33" points="45.6,309.13 66.9,309.13 69.77,306.51 88.62,298.41 69.36,294.93 45.6,302.14 					"/>
				</g>
				<g>
					<polygon class="st32" points="95.53,297.57 122.43,291.9 122.43,260.93 95.53,265.8 					"/>
					<polygon class="st30" points="122.43,260.93 111.27,257.31 102.99,255.04 77.37,259.4 95.53,265.8 					"/>
					<polygon class="st34" points="95.53,297.57 77.76,290.17 77.37,259.4 95.53,265.8 					"/>
					<polygon class="st33" points="99.95,265 95.53,268.39 89.01,272.87 88.62,294.69 85.3,293.25 85.3,262.1 95.53,265.8 					"/>
					<path class="st31" d="M84.8,262.2c-0.02,0-0.05-0.02-0.05-0.04c0-0.03,0.01-0.05,0.04-0.06l26.48-4.84
						c0.03,0,0.05,0.01,0.06,0.04c0,0.03-0.01,0.05-0.04,0.06L84.8,262.2C84.8,262.2,84.8,262.2,84.8,262.2z"/>
					<path class="st31" d="M95.38,265.92c-0.01,0-0.01,0-0.02,0l-17.92-6.3c-0.03-0.01-0.04-0.04-0.03-0.06
						c0.01-0.03,0.04-0.04,0.06-0.03l17.92,6.3c0.03,0.01,0.04,0.04,0.03,0.06C95.43,265.91,95.41,265.92,95.38,265.92z"/>
					<polygon class="st1" points="112.63,257.77 86.43,262.69 86.43,269.65 83.72,268.37 83.53,261.71 109.48,256.85 					"/>
				</g>
				<g>
					<polygon class="st32" points="68.07,307.24 39.59,301.23 39.59,268.46 68.07,273.61 					"/>
					<polygon class="st30" points="39.59,268.46 51.4,264.62 60.17,262.22 87.28,266.84 68.07,273.61 					"/>
					<polygon class="st29" points="68.07,307.24 86.87,299.4 87.28,266.84 68.07,273.61 					"/>
					<path class="st31" d="M79.43,269.8C79.42,269.8,79.42,269.8,79.43,269.8l-28.03-5.12c-0.03-0.01-0.05-0.03-0.04-0.06
						c0.01-0.03,0.03-0.05,0.06-0.04l28.02,5.12c0.03,0.01,0.05,0.03,0.04,0.06C79.48,269.78,79.45,269.8,79.43,269.8z"/>
					<path class="st31" d="M68.22,273.74c-0.02,0-0.04-0.01-0.05-0.04c-0.01-0.03,0-0.06,0.03-0.07l18.97-6.67
						c0.03-0.01,0.06,0,0.07,0.03c0.01,0.03,0,0.06-0.03,0.07l-18.97,6.67C68.23,273.74,68.23,273.74,68.22,273.74z"/>
					<polygon class="st1" points="49.97,265.11 77.7,270.32 77.7,277.68 80.56,276.33 80.77,269.28 53.3,264.14 					"/>
					<polygon class="st33" points="62.43,263.03 60.81,263.47 75.71,270.98 87.19,282.72 87.28,266.84 					"/>
				</g>
				<g>
					<polygon class="st32" points="75.71,270.98 99.9,265.88 99.9,238.03 75.71,242.41 					"/>
					<polygon class="st30" points="99.9,238.03 89.87,234.78 82.43,232.74 59.4,236.66 75.71,242.41 					"/>
					<polygon class="st29" points="75.71,270.98 59.74,264.32 59.4,236.66 75.71,242.41 					"/>
					<path class="st31" d="M66.07,239.17c-0.02,0-0.04-0.02-0.04-0.04c0-0.02,0.01-0.05,0.04-0.05l23.8-4.35
						c0.02,0,0.05,0.01,0.05,0.04c0,0.02-0.01,0.05-0.04,0.05L66.07,239.17C66.07,239.17,66.07,239.17,66.07,239.17z"/>
					<path class="st31" d="M75.59,242.52c0,0-0.01,0-0.01,0l-16.11-5.67c-0.02-0.01-0.04-0.03-0.03-0.06
						c0.01-0.02,0.03-0.04,0.06-0.03l16.11,5.67c0.02,0.01,0.04,0.03,0.03,0.06C75.62,242.51,75.61,242.52,75.59,242.52z"/>
					<polygon class="st1" points="91.09,235.19 67.54,239.62 67.54,245.87 65.1,244.73 64.93,238.73 88.26,234.36 					"/>
				</g>
			</g>
		</g>
		<g>
			<g>
				<g>
					<path class="st22" d="M22.27,344.71c-0.1,0-0.18-0.07-0.19-0.17l-6.72-56.3c-0.01-0.11,0.06-0.2,0.17-0.21
						c0.1-0.01,0.2,0.06,0.21,0.17l6.72,56.3c0.01,0.11-0.06,0.2-0.17,0.21C22.29,344.71,22.28,344.71,22.27,344.71z"/>
					<path class="st22" d="M30.52,346.11c-0.1,0-0.18-0.07-0.19-0.17l-6.37-56.67c-0.01-0.11,0.06-0.2,0.17-0.21
						c0.11-0.01,0.2,0.06,0.21,0.17l6.37,56.67c0.01,0.11-0.06,0.2-0.17,0.21C30.53,346.11,30.52,346.11,30.52,346.11z"/>
					<path class="st22" d="M38.89,347.54c-0.1,0-0.18-0.07-0.19-0.17l-6.01-57.05c-0.01-0.11,0.07-0.2,0.17-0.21
						c0.1-0.01,0.2,0.07,0.21,0.17l6.01,57.05c0.01,0.11-0.07,0.2-0.17,0.21C38.9,347.54,38.9,347.54,38.89,347.54z"/>
					<path class="st22" d="M47.39,348.99c-0.1,0-0.18-0.07-0.19-0.17l-5.64-57.43c-0.01-0.11,0.07-0.2,0.17-0.21
						c0.11-0.01,0.2,0.07,0.21,0.17l5.64,57.43c0.01,0.11-0.07,0.2-0.17,0.21C47.4,348.98,47.39,348.99,47.39,348.99z"/>
					<g>
						<path class="st22" d="M56.01,350.46c-0.1,0-0.18-0.07-0.19-0.17l-5.26-57.82c-0.01-0.11,0.07-0.2,0.17-0.21
							c0.11-0.01,0.2,0.07,0.21,0.17l5.26,57.82c0.01,0.11-0.07,0.2-0.17,0.21C56.02,350.45,56.02,350.46,56.01,350.46z"/>
					</g>
					<g>
						<path class="st22" d="M64.77,351.95c-0.1,0-0.18-0.08-0.19-0.18l-4.87-58.21c-0.01-0.11,0.07-0.2,0.17-0.21
							c0.11-0.01,0.2,0.07,0.21,0.17l4.87,58.21c0.01,0.11-0.07,0.2-0.17,0.21C64.78,351.95,64.78,351.95,64.77,351.95z"/>
					</g>
					<g>
						<path class="st22" d="M73.67,353.46c-0.1,0-0.18-0.08-0.19-0.18l-4.46-58.6c-0.01-0.11,0.07-0.2,0.18-0.21
							c0.11-0.01,0.2,0.07,0.21,0.18l4.46,58.6c0.01,0.11-0.07,0.2-0.18,0.21C73.68,353.46,73.67,353.46,73.67,353.46z"/>
					</g>
				</g>
				<g>
					<path class="st22" d="M80.04,354.96c-0.03,0-0.07,0-0.1-0.01l-64.05-10.91c-0.26-0.04-0.46-0.25-0.49-0.52l-6.84-56
						c-0.02-0.18,0.04-0.37,0.17-0.5c0.13-0.13,0.31-0.19,0.5-0.17l67.02,8.06c0.29,0.03,0.51,0.27,0.53,0.55l3.87,58.85
						c0.01,0.18-0.06,0.36-0.2,0.48C80.33,354.9,80.18,354.96,80.04,354.96z M16.52,342.93l62.87,10.71l-3.79-57.6l-65.77-7.91
						L16.52,342.93z"/>
					
						<rect x="44.37" y="276.84" transform="matrix(0.1501 -0.9887 0.9887 0.1501 -268.6617 307.8354)" class="st22" width="0.72" height="66.7"/>
					
						<rect x="45.95" y="297.44" transform="matrix(0.1501 -0.9887 0.9887 0.1501 -287.1803 326.4796)" class="st22" width="0.72" height="65.68"/>
				</g>
			</g>
			<g>
				<g>
					<path class="st22" d="M80.04,354.96c-0.12,0-0.23-0.03-0.33-0.1c-0.16-0.1-0.26-0.27-0.27-0.46l-3.87-58.85
						c-0.02-0.26,0.13-0.5,0.37-0.59l78.65-32.26c0.19-0.08,0.41-0.05,0.58,0.07c0.17,0.12,0.26,0.32,0.25,0.53l-4.58,65.93
						c-0.02,0.24-0.17,0.44-0.4,0.52l-70.2,25.18C80.17,354.94,80.11,354.96,80.04,354.96z M76.79,295.9l3.79,57.63l69.09-24.78
						l4.49-64.58L76.79,295.9z"/>
					
						<rect x="74.5" y="299.56" transform="matrix(0.9276 -0.3735 0.3735 0.9276 -103.6722 64.8077)" class="st22" width="81.79" height="0.72"/>
					
						<rect x="76.16" y="320.78" transform="matrix(0.9331 -0.3597 0.3597 0.9331 -107.8093 62.9684)" class="st22" width="78.23" height="0.72"/>
				</g>
				<g>
					<path class="st22" d="M86.04,352.4c-0.1,0-0.18-0.08-0.19-0.18l-4-59.11c-0.01-0.11,0.07-0.2,0.18-0.2
						c0.11-0.01,0.2,0.07,0.2,0.18l4,59.11c0.01,0.11-0.07,0.2-0.18,0.2C86.05,352.4,86.04,352.4,86.04,352.4z"/>
					<path class="st22" d="M91.64,350.39c-0.1,0-0.19-0.08-0.19-0.18l-3.27-59.69c-0.01-0.11,0.08-0.2,0.18-0.2
						c0.1-0.01,0.2,0.08,0.2,0.18l3.27,59.69c0.01,0.11-0.08,0.2-0.18,0.2C91.65,350.39,91.64,350.39,91.64,350.39z"/>
					<path class="st22" d="M97.3,348.36c-0.1,0-0.19-0.08-0.19-0.18l-2.54-60.29c0-0.11,0.08-0.19,0.18-0.2
						c0.11,0,0.2,0.08,0.2,0.18l2.54,60.29C97.49,348.26,97.41,348.35,97.3,348.36C97.3,348.36,97.3,348.36,97.3,348.36z"/>
					<path class="st22" d="M103.01,346.31c-0.1,0-0.19-0.08-0.19-0.19l-1.78-60.89c0-0.11,0.08-0.19,0.19-0.2
						c0.1-0.01,0.19,0.08,0.2,0.19l1.78,60.89C103.21,346.22,103.12,346.31,103.01,346.31
						C103.01,346.31,103.01,346.31,103.01,346.31z"/>
					<path class="st22" d="M108.78,344.24c-0.1,0-0.19-0.08-0.19-0.19l-1.01-61.5c0-0.11,0.08-0.19,0.19-0.19
						c0.11,0,0.19,0.08,0.19,0.19l1.01,61.5C108.97,344.15,108.89,344.24,108.78,344.24C108.78,344.24,108.78,344.24,108.78,344.24z
						"/>
					<path class="st22" d="M114.6,342.15c-0.11,0-0.19-0.09-0.19-0.19l-0.23-62.13c0-0.11,0.09-0.19,0.19-0.19c0,0,0,0,0,0
						c0.11,0,0.19,0.09,0.19,0.19l0.23,62.13C114.79,342.07,114.71,342.15,114.6,342.15C114.6,342.15,114.6,342.15,114.6,342.15z"/>
					<path class="st22" d="M120.48,340.04C120.48,340.04,120.48,340.04,120.48,340.04c-0.11,0-0.19-0.09-0.19-0.19l0.57-62.76
						c0-0.11,0.09-0.19,0.19-0.19c0,0,0,0,0,0c0.11,0,0.19,0.09,0.19,0.19l-0.57,62.76C120.67,339.96,120.59,340.04,120.48,340.04z"
						/>
					<path class="st22" d="M126.42,337.91C126.42,337.91,126.41,337.91,126.42,337.91c-0.11,0-0.19-0.09-0.19-0.2l1.39-63.4
						c0-0.11,0.08-0.19,0.2-0.19c0.11,0,0.19,0.09,0.19,0.2l-1.39,63.4C126.61,337.83,126.52,337.91,126.42,337.91z"/>
					<path class="st22" d="M132.41,335.76C132.41,335.76,132.41,335.76,132.41,335.76c-0.11,0-0.2-0.09-0.19-0.2l2.23-64.05
						c0-0.11,0.1-0.19,0.2-0.18c0.11,0,0.19,0.09,0.18,0.2l-2.23,64.05C132.6,335.68,132.52,335.76,132.41,335.76z"/>
					<path class="st22" d="M138.47,333.59C138.46,333.59,138.46,333.59,138.47,333.59c-0.11-0.01-0.2-0.1-0.19-0.2l3.08-64.71
						c0.01-0.11,0.09-0.19,0.2-0.18c0.11,0.01,0.19,0.09,0.18,0.2l-3.08,64.71C138.65,333.51,138.57,333.59,138.47,333.59z"/>
					<path class="st22" d="M144.58,331.4c0,0-0.01,0-0.01,0c-0.11-0.01-0.19-0.1-0.18-0.2l3.95-65.38c0.01-0.11,0.1-0.19,0.2-0.18
						c0.11,0.01,0.19,0.1,0.18,0.2l-3.95,65.38C144.77,331.32,144.68,331.4,144.58,331.4z"/>
				</g>
			</g>
		</g>
	</g>
	<g>
		
			<ellipse transform="matrix(0.0478 -0.9989 0.9989 0.0478 197.815 418.2947)" class="st35" cx="318.31" cy="105.39" rx="6.87" ry="1.91"/>
		
			<ellipse transform="matrix(0.0478 -0.9989 0.9989 0.0478 176.6594 436.6125)" class="st35" cx="317.34" cy="125.64" rx="6.87" ry="1.91"/>
	</g>
	<defs>
		<filter id="Adobe_OpacityMaskFilter_4_" filterUnits="userSpaceOnUse" x="220.9" y="404.23" width="36.88" height="17.38">
			<feFlood  style="flood-color:white;flood-opacity:1" result="back"/>
			<feBlend  in="SourceGraphic" in2="back" mode="normal"/>
		</filter>
	</defs>
	<mask maskUnits="userSpaceOnUse" x="220.9" y="404.23" width="36.88" height="17.38" id="SVGID_8_">
		<g class="st36">
			<defs>
				<filter id="Adobe_OpacityMaskFilter_5_" filterUnits="userSpaceOnUse" x="220.9" y="404.23" width="36.88" height="17.38">
					<feFlood  style="flood-color:white;flood-opacity:1" result="back"/>
					<feBlend  in="SourceGraphic" in2="back" mode="normal"/>
				</filter>
			</defs>
			<mask maskUnits="userSpaceOnUse" x="220.9" y="404.23" width="36.88" height="17.38" id="SVGID_8_">
				<g class="st37">
				</g>
			</mask>
			<linearGradient id="SVGID_9_" gradientUnits="userSpaceOnUse" x1="227.2876" y1="418.2476" x2="272.0073" y2="398.4554">
				<stop  offset="4.277940e-03" style="stop-color:#FFFFFF"/>
				<stop  offset="1" style="stop-color:#000000"/>
			</linearGradient>
			<ellipse class="st38" cx="239.34" cy="412.91" rx="18.44" ry="8.69"/>
		</g>
	</mask>
	<linearGradient id="SVGID_10_" gradientUnits="userSpaceOnUse" x1="227.2876" y1="418.2476" x2="272.0073" y2="398.4554">
		<stop  offset="4.277940e-03" style="stop-color:#137BA7"/>
		<stop  offset="1" style="stop-color:#FFFFFF"/>
	</linearGradient>
	<ellipse class="st39" cx="239.34" cy="412.91" rx="18.44" ry="8.69"/>
	<defs>
		<filter id="Adobe_OpacityMaskFilter_6_" filterUnits="userSpaceOnUse" x="276.08" y="410.57" width="41.22" height="20.9">
			<feFlood  style="flood-color:white;flood-opacity:1" result="back"/>
			<feBlend  in="SourceGraphic" in2="back" mode="normal"/>
		</filter>
	</defs>
	<mask maskUnits="userSpaceOnUse" x="276.08" y="410.57" width="41.22" height="20.9" id="SVGID_11_">
		<g class="st40">
			<defs>
				<filter id="Adobe_OpacityMaskFilter_7_" filterUnits="userSpaceOnUse" x="276.08" y="410.57" width="41.22" height="20.9">
					<feFlood  style="flood-color:white;flood-opacity:1" result="back"/>
					<feBlend  in="SourceGraphic" in2="back" mode="normal"/>
				</filter>
			</defs>
			<mask maskUnits="userSpaceOnUse" x="276.08" y="410.57" width="41.22" height="20.9" id="SVGID_11_">
				<g class="st41">
				</g>
			</mask>
			<linearGradient id="SVGID_12_" gradientUnits="userSpaceOnUse" x1="283.1719" y1="427.0053" x2="333.3157" y2="404.8125">
				<stop  offset="4.277940e-03" style="stop-color:#FFFFFF"/>
				<stop  offset="1" style="stop-color:#000000"/>
			</linearGradient>
			<ellipse class="st42" cx="296.68" cy="421.03" rx="20.61" ry="10.45"/>
		</g>
	</mask>
	<linearGradient id="SVGID_13_" gradientUnits="userSpaceOnUse" x1="283.1719" y1="427.0053" x2="333.3157" y2="404.8125">
		<stop  offset="4.277940e-03" style="stop-color:#137BA7"/>
		<stop  offset="1" style="stop-color:#FFFFFF"/>
	</linearGradient>
	<ellipse class="st43" cx="296.68" cy="421.03" rx="20.61" ry="10.45"/>
	<defs>
		<filter id="Adobe_OpacityMaskFilter_8_" filterUnits="userSpaceOnUse" x="228.97" y="375.54" width="31.4" height="15.93">
			<feFlood  style="flood-color:white;flood-opacity:1" result="back"/>
			<feBlend  in="SourceGraphic" in2="back" mode="normal"/>
		</filter>
	</defs>
	<mask maskUnits="userSpaceOnUse" x="228.97" y="375.54" width="31.4" height="15.93" id="SVGID_14_">
		<g class="st44">
			<defs>
				<filter id="Adobe_OpacityMaskFilter_9_" filterUnits="userSpaceOnUse" x="228.97" y="375.54" width="31.4" height="15.93">
					<feFlood  style="flood-color:white;flood-opacity:1" result="back"/>
					<feBlend  in="SourceGraphic" in2="back" mode="normal"/>
				</filter>
			</defs>
			<mask maskUnits="userSpaceOnUse" x="228.97" y="375.54" width="31.4" height="15.93" id="SVGID_14_">
				<g class="st45">
				</g>
			</mask>
			<linearGradient id="SVGID_15_" gradientUnits="userSpaceOnUse" x1="234.3763" y1="388.0565" x2="272.5814" y2="371.1476">
				<stop  offset="4.277940e-03" style="stop-color:#FFFFFF"/>
				<stop  offset="1" style="stop-color:#000000"/>
			</linearGradient>
			<ellipse class="st46" cx="244.67" cy="383.5" rx="15.7" ry="7.96"/>
		</g>
	</mask>
	<linearGradient id="SVGID_16_" gradientUnits="userSpaceOnUse" x1="234.3763" y1="388.0565" x2="272.5814" y2="371.1476">
		<stop  offset="4.277940e-03" style="stop-color:#137BA7"/>
		<stop  offset="1" style="stop-color:#FFFFFF"/>
	</linearGradient>
	<ellipse class="st47" cx="244.67" cy="383.5" rx="15.7" ry="7.96"/>
	<g>
		
			<linearGradient id="SVGID_17_" gradientUnits="userSpaceOnUse" x1="261.7766" y1="283.7127" x2="481.3492" y2="64.1401" gradientTransform="matrix(0.9973 2.000000e-04 -0.032 1.0027 2.4199 -0.5859)">
			<stop  offset="0" style="stop-color:#4EBDC8"/>
			<stop  offset="0.1763" style="stop-color:#4CB3C8"/>
			<stop  offset="0.5363" style="stop-color:#4B98C3"/>
			<stop  offset="1" style="stop-color:#516CB2"/>
		</linearGradient>
		<path class="st48" d="M426.24,190.8l-86.12-6.39c-2.71-0.2-4.81-2.82-4.71-5.84l1.58-49.63c0.1-3.03,2.36-5.48,5.07-5.48
			l86.32,0.02c3.33,0,5.97,2.74,5.86,6.13l-1.77,55.52C432.36,188.51,429.56,191.05,426.24,190.8z"/>
		<linearGradient id="SVGID_18_" gradientUnits="userSpaceOnUse" x1="341.5599" y1="97.059" x2="360.8503" y2="194.2383">
			<stop  offset="0.2401" style="stop-color:#EBBD62"/>
			<stop  offset="0.5481" style="stop-color:#FFFFFF"/>
			<stop  offset="0.993" style="stop-color:#FBBB3D"/>
		</linearGradient>
		<path class="st49" d="M351.63,139.05l6.67,0.13l0.09-2.95c0.03-0.98-0.67-1.79-1.57-1.8l-9.27-0.12l-0.22,7.04
			c-0.01,0.42-0.23,0.76-0.61,0.75l0,0c-0.38-0.01-0.52-0.35-0.5-0.77l0.22-7.03l-1.58-0.02c-0.87-0.01-1.6,0.76-1.63,1.73
			l-0.27,8.48l8.6,0.22c0.27,0.01,0.51,0.23,0.53,0.53c0.02,0.34-0.23,0.62-0.53,0.62l-8.63-0.23l-0.11,3.5
			c-0.03,0.97,0.65,1.77,1.51,1.8l11.95,0.4c0.89,0.03,1.65-0.74,1.68-1.73l0.29-9.22l-6.7-0.14c-0.31-0.01-0.55-0.3-0.5-0.65
			C351.1,139.26,351.36,139.04,351.63,139.05z"/>
		<polygon class="st50" points="424.44,183.09 403.21,181.69 403.56,170.81 424.79,171.95 		"/>
		<g>
			<polygon class="st50" points="359.69,157.73 342.57,157.03 342.42,161.76 359.54,162.55 			"/>
			<polygon class="st50" points="362.16,157.83 362.01,162.67 380.3,163.52 380.45,158.58 			"/>
			<polygon class="st50" points="404.41,159.55 404.25,164.64 424.87,165.6 425.04,160.4 			"/>
			<polygon class="st50" points="401.54,159.44 383.39,158.7 383.23,163.66 401.38,164.5 			"/>
		</g>
		<polygon class="st51" points="397.31,177 342.14,173.63 342.34,167.53 397.52,170.48 		"/>
		<polygon class="st50" points="399.96,129.61 426.14,129.8 425.89,137.63 399.72,137.21 		"/>
	</g>
	<g>
		<path class="st52" d="M153.72,206.1l-66.61-4.94c-2.09-0.16-3.72-2.18-3.65-4.52l1.23-38.39c0.07-2.34,1.83-4.24,3.92-4.24
			l66.76,0.02c2.58,0,4.61,2.12,4.53,4.74l-1.37,42.94C158.45,204.32,156.29,206.29,153.72,206.1z"/>
		<linearGradient id="SVGID_19_" gradientUnits="userSpaceOnUse" x1="73.9753" y1="135.1702" x2="100.3263" y2="176.9503">
			<stop  offset="0.2401" style="stop-color:#EBBD62"/>
			<stop  offset="0.5481" style="stop-color:#FFFFFF"/>
			<stop  offset="0.993" style="stop-color:#FBBB3D"/>
		</linearGradient>
		<path class="st53" d="M96.02,166.07l5.16,0.1l0.07-2.28c0.02-0.76-0.52-1.39-1.21-1.39l-7.17-0.1l-0.17,5.44
			c-0.01,0.33-0.17,0.59-0.47,0.58l0,0c-0.29-0.01-0.4-0.27-0.39-0.6l0.17-5.44l-1.22-0.02c-0.67-0.01-1.23,0.59-1.26,1.34
			l-0.21,6.56l6.65,0.17c0.21,0.01,0.39,0.18,0.41,0.41c0.02,0.26-0.18,0.48-0.41,0.48l-6.67-0.18l-0.09,2.71
			c-0.02,0.75,0.5,1.37,1.17,1.39l9.24,0.31c0.69,0.02,1.27-0.58,1.3-1.34l0.23-7.13l-5.18-0.11c-0.24,0-0.42-0.24-0.39-0.5
			C95.6,166.23,95.8,166.07,96.02,166.07z"/>
		<polygon class="st16" points="152.32,200.13 135.91,199.05 136.18,190.63 152.6,191.51 		"/>
		<g>
			<polygon class="st16" points="102.25,180.52 89.01,179.98 88.89,183.63 102.13,184.25 			"/>
			<polygon class="st16" points="104.16,180.6 104.04,184.34 118.19,185 118.31,181.17 			"/>
			<polygon class="st16" points="136.84,181.93 136.71,185.86 152.66,186.61 152.79,182.58 			"/>
			<polygon class="st16" points="134.62,181.84 120.58,181.27 120.45,185.1 134.49,185.76 			"/>
		</g>
		<polygon class="st54" points="131.34,195.42 88.68,192.82 88.83,188.1 131.5,190.38 		"/>
		<polygon class="st16" points="133.39,158.77 153.64,158.92 153.45,164.97 133.21,164.65 		"/>
	</g>
	<g>
		<g>
			<path class="st55" d="M255.38,409.67c-2.44-3.19-8.93-5.48-16.55-5.48c-7.62,0-14.1,2.28-16.55,5.48h-1.04v2.81
				c0,4.58,7.87,8.28,17.58,8.28c9.71,0,17.58-3.71,17.58-8.28v-2.81H255.38z"/>
			<ellipse class="st56" cx="238.83" cy="409.67" rx="17.58" ry="8.28"/>
			<ellipse class="st57" cx="238.83" cy="409.67" rx="16.48" ry="7.76"/>
		</g>
		<path class="st56" d="M238.83,416.72c-4.03,0-7.83-0.72-10.68-2.04c-2.88-1.33-4.47-3.11-4.47-5.01c0-1.9,1.59-3.68,4.47-5.01
			c2.85-1.32,6.65-2.04,10.68-2.04c4.03,0,7.83,0.72,10.68,2.04c2.88,1.33,4.47,3.11,4.47,5.01c0,1.9-1.59,3.68-4.47,5.01
			C246.65,416,242.86,416.72,238.83,416.72z M238.83,402.86c-8.22,0-14.91,3.06-14.91,6.81c0,3.76,6.69,6.81,14.91,6.81
			c8.22,0,14.91-3.06,14.91-6.81C253.74,405.91,247.05,402.86,238.83,402.86z"/>
		<g>
			<ellipse class="st57" cx="238.83" cy="409.67" rx="14.68" ry="6.77"/>
			<g>
				<g>
					<path class="st58" d="M235,413.01c0.09-0.5-0.8-1.01-0.8-1.01s-1.03,0.3-1.12,0.8c-0.08,0.45,0.64,0.91,0.78,1
						c-1.03-0.24-1.93-0.55-2.69-0.9c0.17-0.03,1.05-0.22,1.34-0.63c0.31-0.46-0.23-1.04-0.23-1.04s-1.05,0.18-1.36,0.64
						c-0.27,0.4,0.09,0.88,0.2,1c-0.68-0.32-1.24-0.68-1.67-1.08c0.04-0.01,0.07-0.01,0.07-0.01s-0.02-0.03-0.06-0.07
						c0.23-0.03,1-0.17,1.33-0.52c0.4-0.42,0.03-0.98,0.03-0.98s-1.01,0.11-1.4,0.53c-0.28,0.29-0.18,0.66-0.1,0.85
						c-0.05-0.04-0.12-0.09-0.2-0.13c-0.34-0.39-0.57-0.8-0.67-1.24c0.28,0,0.96-0.03,1.47-0.27c0.66-0.31,0.79-0.86,0.79-0.86
						s-0.94-0.04-1.61,0.27c-0.39,0.18-0.6,0.45-0.7,0.64c0-0.01-0.01-0.03-0.01-0.04c-0.06-0.46,0.03-0.91,0.24-1.34
						c0.16,0.01,0.91,0.06,1.57-0.16c0.75-0.24,1.1-0.72,1.1-0.72s-0.85-0.09-1.6,0.15c-0.54,0.18-0.88,0.48-1.02,0.63
						c0.29-0.53,0.77-1.03,1.44-1.47c0.24,0.03,0.88,0.08,1.53-0.03c0.83-0.15,1.37-0.52,1.37-0.52s-0.81-0.13-1.64,0.02
						c-0.27,0.05-0.51,0.12-0.71,0.2c0.57-0.32,1.25-0.61,2.01-0.86c0.19,0.01,0.9,0.05,1.57-0.12c0.78-0.2,1.21-0.6,1.21-0.6
						s-0.84-0.08-1.62,0.12c-0.55,0.14-0.93,0.38-1.1,0.51c-0.76,0.24-1.44,0.52-2.03,0.83c0.06-0.06,0.11-0.12,0.14-0.18
						c0.21-0.4-0.13-0.82-0.13-0.82s-0.69,0.23-0.91,0.63c-0.21,0.4,0.13,0.82,0.13,0.82s0.02-0.01,0.05-0.02
						c-0.53,0.36-0.95,0.75-1.25,1.17c0-0.1-0.02-0.21-0.11-0.33c-0.31-0.4-1.22-0.68-1.22-0.68s-0.41,0.36-0.1,0.75
						c0.27,0.35,1.02,0.61,1.18,0.67c-0.21,0.43-0.3,0.89-0.24,1.35c0.01,0.09,0.03,0.17,0.05,0.26c0,0,0,0,0,0h0
						c0.09,0.4,0.29,0.78,0.58,1.13c-0.17-0.07-0.37-0.13-0.62-0.17c-0.93-0.15-2.12,0.05-2.12,0.05s0.31,0.46,1.24,0.61
						c0.7,0.12,1.56,0.03,1.93-0.02c0.37,0.33,0.82,0.64,1.36,0.93c1.4,0.73,3.33,1.27,5.59,1.56l0.03-0.06
						c-0.87-0.11-1.67-0.25-2.41-0.43C234.02,413.76,234.92,413.47,235,413.01z"/>
					<path class="st58" d="M231.91,413.47c-1.09-0.03-2.17,0.39-2.17,0.39s0.68,0.47,1.76,0.5c1.09,0.03,2.17-0.39,2.17-0.39
						S233,413.5,231.91,413.47z"/>
					<path class="st58" d="M229.36,412.44c-1.04-0.06-2.17,0.29-2.17,0.29s0.56,0.44,1.61,0.5c1.04,0.06,2.17-0.29,2.17-0.29
						S230.4,412.49,229.36,412.44z"/>
					<path class="st58" d="M228.3,410.27c0,0-0.08-0.44-0.86-0.68c-0.78-0.25-1.97-0.21-1.97-0.21s0.08,0.44,0.86,0.68
						C227.11,410.3,228.3,410.27,228.3,410.27z"/>
					<path class="st58" d="M245.75,413.39c-1.09,0.03-1.76,0.5-1.76,0.5s1.09,0.42,2.17,0.39c1.09-0.03,1.76-0.5,1.76-0.5
						S246.83,413.36,245.75,413.39z"/>
					<path class="st58" d="M248.3,412.36c-1.04,0.06-1.61,0.5-1.61,0.5s1.12,0.35,2.17,0.29c1.04-0.06,1.61-0.5,1.61-0.5
						S249.34,412.3,248.3,412.36z"/>
					<path class="st58" d="M249.39,411.09c-0.25,0.04-0.45,0.1-0.62,0.17c0.29-0.36,0.49-0.74,0.58-1.13l0,0c0,0,0,0,0,0
						c0.02-0.09,0.04-0.17,0.05-0.26c0.06-0.47-0.03-0.92-0.24-1.35c0.17-0.06,0.91-0.32,1.18-0.67c0.31-0.4-0.1-0.75-0.1-0.75
						s-0.91,0.28-1.22,0.68c-0.09,0.11-0.12,0.23-0.11,0.33c-0.3-0.42-0.71-0.81-1.25-1.17c0.03,0.01,0.05,0.02,0.05,0.02
						s0.35-0.42,0.13-0.82c-0.21-0.4-0.91-0.63-0.91-0.63s-0.35,0.42-0.13,0.82c0.04,0.07,0.08,0.13,0.14,0.18
						c-0.58-0.31-1.26-0.59-2.03-0.83c-0.18-0.13-0.55-0.37-1.1-0.51c-0.78-0.2-1.62-0.12-1.62-0.12s0.43,0.4,1.21,0.6
						c0.67,0.17,1.38,0.13,1.57,0.12c0.76,0.25,1.44,0.54,2.01,0.86c-0.2-0.08-0.44-0.15-0.71-0.2c-0.83-0.15-1.64-0.02-1.64-0.02
						s0.54,0.37,1.37,0.52c0.65,0.12,1.29,0.06,1.53,0.03c0.67,0.45,1.15,0.94,1.44,1.47c-0.14-0.15-0.48-0.45-1.02-0.63
						c-0.75-0.24-1.6-0.15-1.6-0.15s0.35,0.48,1.1,0.72c0.66,0.22,1.41,0.17,1.57,0.16c0.21,0.43,0.29,0.87,0.24,1.34
						c0,0.01-0.01,0.03-0.01,0.04c-0.1-0.19-0.31-0.45-0.7-0.64c-0.66-0.31-1.61-0.27-1.61-0.27s0.13,0.55,0.79,0.86
						c0.51,0.24,1.19,0.27,1.47,0.27c-0.1,0.44-0.33,0.86-0.67,1.24c-0.08,0.05-0.15,0.09-0.2,0.13c0.08-0.19,0.18-0.56-0.1-0.85
						c-0.4-0.42-1.4-0.53-1.4-0.53s-0.36,0.56,0.03,0.98c0.34,0.35,1.1,0.49,1.33,0.52c-0.04,0.04-0.06,0.07-0.06,0.07
						s0.02,0,0.07,0.01c-0.43,0.4-1,0.76-1.67,1.08c0.11-0.13,0.47-0.61,0.2-1c-0.31-0.46-1.36-0.64-1.36-0.64s-0.54,0.57-0.23,1.04
						c0.28,0.42,1.17,0.6,1.34,0.63c-0.76,0.35-1.66,0.66-2.69,0.9c0.14-0.08,0.86-0.54,0.78-1c-0.09-0.5-1.12-0.8-1.12-0.8
						s-0.89,0.51-0.8,1.01c0.08,0.46,0.98,0.76,1.1,0.8c-0.74,0.17-1.55,0.32-2.41,0.43l0.03,0.06c2.26-0.28,4.19-0.82,5.59-1.56
						c0.54-0.28,0.99-0.59,1.36-0.93c0.37,0.05,1.23,0.14,1.93,0.02c0.93-0.15,1.24-0.61,1.24-0.61S250.32,410.93,249.39,411.09z"/>
					<path class="st58" d="M250.22,409.5c-0.78,0.25-0.86,0.68-0.86,0.68s1.19,0.04,1.97-0.21c0.78-0.25,0.86-0.68,0.86-0.68
						S251,409.26,250.22,409.5z"/>
				</g>
				<ellipse class="st58" cx="238.83" cy="409.67" rx="4.64" ry="2.14"/>
			</g>
		</g>
	</g>
	<g>
		<g>
			<path class="st55" d="M313.94,418.65c-2.68-3.5-9.79-6.01-18.15-6.01c-8.36,0-15.47,2.5-18.15,6.01h-1.14v3.08
				c0,5.02,8.63,9.09,19.29,9.09c10.65,0,19.29-4.07,19.29-9.09v-3.08H313.94z"/>
			<ellipse class="st56" cx="295.79" cy="418.65" rx="19.29" ry="9.09"/>
			<ellipse class="st57" cx="295.79" cy="418.65" rx="18.07" ry="8.51"/>
		</g>
		<path class="st56" d="M295.79,426.38c-4.42,0-8.58-0.8-11.71-2.24c-3.16-1.46-4.91-3.41-4.91-5.49c0-2.08,1.74-4.04,4.91-5.49
			c3.13-1.44,7.29-2.24,11.71-2.24c4.42,0,8.58,0.8,11.71,2.24c3.16,1.46,4.91,3.41,4.91,5.49c0,2.08-1.74,4.04-4.91,5.49
			C304.37,425.59,300.21,426.38,295.79,426.38z M295.79,411.18c-9.02,0-16.36,3.35-16.36,7.47c0,4.12,7.34,7.47,16.36,7.47
			s16.36-3.35,16.36-7.47C312.15,414.53,304.81,411.18,295.79,411.18z"/>
		<g>
			<ellipse class="st57" cx="295.79" cy="418.65" rx="16.1" ry="7.42"/>
			<g>
				<g>
					<path class="st58" d="M291.59,422.31c0.1-0.55-0.88-1.11-0.88-1.11s-1.13,0.33-1.23,0.88c-0.09,0.5,0.7,1,0.85,1.09
						c-1.13-0.27-2.11-0.6-2.95-0.99c0.19-0.03,1.15-0.24,1.47-0.69c0.34-0.51-0.25-1.14-0.25-1.14s-1.15,0.19-1.5,0.7
						c-0.3,0.44,0.1,0.96,0.22,1.1c-0.74-0.35-1.36-0.75-1.83-1.18c0.05-0.01,0.07-0.01,0.07-0.01s-0.02-0.03-0.07-0.08
						c0.25-0.04,1.1-0.19,1.46-0.57c0.43-0.46,0.04-1.07,0.04-1.07s-1.1,0.13-1.54,0.58c-0.31,0.32-0.2,0.72-0.11,0.93
						c-0.06-0.05-0.13-0.1-0.22-0.15c-0.37-0.43-0.62-0.88-0.74-1.37c0.31,0,1.05-0.04,1.61-0.3c0.73-0.34,0.87-0.94,0.87-0.94
						s-1.04-0.04-1.76,0.3c-0.43,0.2-0.66,0.5-0.77,0.7c0-0.02-0.01-0.03-0.01-0.05c-0.06-0.51,0.03-1,0.26-1.46
						c0.17,0.01,0.99,0.06,1.72-0.17c0.82-0.27,1.2-0.79,1.2-0.79s-0.94-0.1-1.75,0.17c-0.59,0.19-0.96,0.52-1.12,0.69
						c0.32-0.58,0.85-1.13,1.58-1.62c0.27,0.03,0.97,0.09,1.68-0.04c0.91-0.16,1.5-0.57,1.5-0.57s-0.89-0.14-1.8,0.02
						c-0.3,0.05-0.56,0.13-0.78,0.22c0.63-0.35,1.37-0.66,2.2-0.94c0.21,0.01,0.99,0.05,1.72-0.13c0.86-0.22,1.33-0.65,1.33-0.65
						s-0.92-0.09-1.78,0.13c-0.6,0.15-1.02,0.41-1.21,0.55c-0.84,0.27-1.58,0.57-2.22,0.91c0.06-0.06,0.12-0.13,0.15-0.2
						c0.24-0.44-0.15-0.89-0.15-0.89s-0.76,0.25-1,0.69c-0.24,0.44,0.15,0.89,0.15,0.89s0.02-0.01,0.05-0.02
						c-0.59,0.39-1.05,0.82-1.37,1.28c0-0.11-0.03-0.23-0.12-0.36c-0.34-0.43-1.34-0.75-1.34-0.75s-0.45,0.39-0.11,0.82
						c0.3,0.38,1.12,0.67,1.3,0.73c-0.23,0.47-0.33,0.97-0.26,1.48c0.01,0.1,0.03,0.19,0.05,0.28c0,0,0,0,0,0l0,0
						c0.1,0.43,0.32,0.85,0.64,1.24c-0.18-0.08-0.4-0.15-0.68-0.19c-1.02-0.17-2.32,0.05-2.32,0.05s0.34,0.5,1.36,0.67
						c0.77,0.13,1.71,0.03,2.12-0.02c0.4,0.36,0.9,0.71,1.49,1.02c1.53,0.81,3.66,1.4,6.13,1.71l0.04-0.06
						c-0.95-0.12-1.83-0.28-2.65-0.47C290.52,423.14,291.5,422.82,291.59,422.31z"/>
					<path class="st58" d="M288.2,422.82c-1.19-0.03-2.38,0.43-2.38,0.43s0.74,0.52,1.93,0.55c1.19,0.03,2.38-0.43,2.38-0.43
						S289.4,422.85,288.2,422.82z"/>
					<path class="st58" d="M285.4,421.68c-1.14-0.06-2.38,0.32-2.38,0.32s0.62,0.49,1.76,0.55c1.14,0.06,2.38-0.32,2.38-0.32
						S286.54,421.75,285.4,421.68z"/>
					<path class="st58" d="M284.24,419.3c0,0-0.09-0.48-0.94-0.75c-0.86-0.27-2.16-0.23-2.16-0.23s0.09,0.48,0.94,0.75
						C282.94,419.34,284.24,419.3,284.24,419.3z"/>
					<path class="st58" d="M303.37,422.73c-1.19,0.03-1.93,0.55-1.93,0.55s1.19,0.46,2.38,0.43c1.19-0.03,1.93-0.55,1.93-0.55
						S304.57,422.7,303.37,422.73z"/>
					<path class="st58" d="M306.18,421.6c-1.14,0.06-1.76,0.55-1.76,0.55s1.23,0.38,2.38,0.32c1.14-0.06,1.76-0.55,1.76-0.55
						S307.32,421.53,306.18,421.6z"/>
					<path class="st58" d="M307.38,420.21c-0.27,0.05-0.49,0.11-0.68,0.19c0.32-0.39,0.53-0.81,0.64-1.24l0,0c0,0,0,0,0,0
						c0.02-0.09,0.04-0.19,0.05-0.28c0.06-0.51-0.03-1.01-0.26-1.48c0.18-0.06,1-0.35,1.3-0.73c0.34-0.43-0.11-0.82-0.11-0.82
						s-1,0.31-1.34,0.75c-0.1,0.13-0.13,0.25-0.12,0.36c-0.32-0.46-0.78-0.89-1.37-1.28c0.03,0.01,0.05,0.02,0.05,0.02
						s0.38-0.46,0.15-0.89c-0.24-0.44-1-0.69-1-0.69s-0.38,0.46-0.15,0.89c0.04,0.07,0.09,0.14,0.15,0.2
						c-0.64-0.34-1.38-0.65-2.22-0.91c-0.19-0.14-0.6-0.4-1.21-0.55c-0.86-0.22-1.78-0.13-1.78-0.13s0.47,0.44,1.33,0.65
						c0.74,0.19,1.52,0.15,1.72,0.13c0.84,0.27,1.57,0.59,2.2,0.94c-0.22-0.08-0.48-0.16-0.78-0.22c-0.91-0.16-1.8-0.02-1.8-0.02
						s0.59,0.41,1.5,0.57c0.72,0.13,1.42,0.07,1.68,0.04c0.73,0.49,1.26,1.03,1.58,1.62c-0.16-0.17-0.52-0.5-1.12-0.69
						c-0.82-0.27-1.75-0.17-1.75-0.17s0.39,0.53,1.2,0.79c0.73,0.24,1.55,0.19,1.72,0.17c0.23,0.47,0.32,0.96,0.26,1.46
						c0,0.02-0.01,0.03-0.01,0.05c-0.11-0.2-0.34-0.5-0.77-0.7c-0.73-0.34-1.76-0.3-1.76-0.3s0.14,0.6,0.87,0.94
						c0.56,0.26,1.3,0.3,1.61,0.3c-0.12,0.48-0.36,0.94-0.74,1.37c-0.09,0.05-0.16,0.1-0.22,0.15c0.09-0.21,0.2-0.61-0.11-0.93
						c-0.43-0.46-1.54-0.58-1.54-0.58s-0.4,0.62,0.04,1.07c0.37,0.39,1.21,0.53,1.46,0.57c-0.05,0.05-0.07,0.08-0.07,0.08
						s0.03,0,0.07,0.01c-0.48,0.43-1.09,0.83-1.83,1.18c0.12-0.14,0.51-0.66,0.22-1.1c-0.34-0.51-1.5-0.7-1.5-0.7
						s-0.59,0.63-0.25,1.14c0.31,0.46,1.28,0.66,1.47,0.69c-0.83,0.39-1.82,0.72-2.95,0.99c0.15-0.09,0.94-0.6,0.85-1.09
						c-0.1-0.55-1.23-0.88-1.23-0.88s-0.98,0.56-0.88,1.11c0.09,0.51,1.07,0.83,1.21,0.87c-0.81,0.19-1.7,0.35-2.65,0.47l0.04,0.06
						c2.48-0.31,4.6-0.9,6.13-1.71c0.59-0.31,1.09-0.65,1.49-1.02c0.41,0.05,1.34,0.15,2.12,0.02c1.02-0.17,1.36-0.67,1.36-0.67
						S308.39,420.04,307.38,420.21z"/>
					<path class="st58" d="M308.28,418.47c-0.86,0.27-0.94,0.75-0.94,0.75s1.3,0.04,2.16-0.23c0.86-0.27,0.94-0.75,0.94-0.75
						S309.13,418.2,308.28,418.47z"/>
				</g>
				<ellipse class="st58" cx="295.79" cy="418.65" rx="5.09" ry="2.35"/>
			</g>
		</g>
	</g>
	<g>
		<g>
			<path class="st59" d="M258.54,381.07c-2.12-2.77-7.74-4.75-14.34-4.75c-6.6,0-12.22,1.98-14.34,4.75h-0.9v2.43
				c0,3.96,6.82,7.18,15.24,7.18c8.42,0,15.24-3.21,15.24-7.18v-2.43H258.54z"/>
			<ellipse class="st59" cx="244.21" cy="381.07" rx="15.24" ry="7.18"/>
			<ellipse class="st60" cx="244.21" cy="381.07" rx="14.28" ry="6.73"/>
		</g>
		<g>
			<g>
				<g>
					<g>
						<path class="st59" d="M240.55,384.25c0.08-0.48-0.77-0.96-0.77-0.96s-0.99,0.29-1.07,0.77c-0.08,0.43,0.61,0.87,0.74,0.95
							c-0.98-0.23-1.84-0.52-2.56-0.86c0.16-0.03,1-0.21,1.27-0.6c0.3-0.44-0.22-0.99-0.22-0.99s-1,0.17-1.3,0.61
							c-0.26,0.38,0.09,0.84,0.19,0.96c-0.64-0.31-1.18-0.65-1.59-1.03c0.04-0.01,0.06-0.01,0.06-0.01s-0.02-0.03-0.06-0.07
							c0.22-0.03,0.95-0.16,1.27-0.5c0.38-0.4,0.03-0.93,0.03-0.93s-0.96,0.11-1.34,0.51c-0.27,0.28-0.17,0.63-0.09,0.81
							c-0.05-0.04-0.12-0.08-0.19-0.13c-0.33-0.37-0.54-0.77-0.64-1.19c0.27,0,0.92-0.03,1.4-0.26c0.63-0.3,0.76-0.82,0.76-0.82
							s-0.9-0.04-1.53,0.26c-0.37,0.18-0.57,0.43-0.67,0.61c0-0.01-0.01-0.03-0.01-0.04c-0.05-0.44,0.02-0.87,0.22-1.27
							c0.15,0.01,0.86,0.06,1.5-0.15c0.71-0.23,1.05-0.69,1.05-0.69s-0.82-0.08-1.53,0.15c-0.52,0.17-0.84,0.46-0.97,0.6
							c0.27-0.51,0.74-0.98,1.37-1.41c0.23,0.03,0.84,0.08,1.46-0.03c0.79-0.14,1.31-0.5,1.31-0.5s-0.77-0.12-1.56,0.02
							c-0.26,0.05-0.49,0.12-0.68,0.19c0.55-0.3,1.19-0.58,1.92-0.82c0.18,0.01,0.86,0.05,1.5-0.11c0.75-0.19,1.16-0.57,1.16-0.57
							s-0.8-0.08-1.54,0.11c-0.52,0.13-0.88,0.36-1.05,0.48c-0.73,0.23-1.38,0.5-1.93,0.79c0.05-0.05,0.1-0.11,0.13-0.17
							c0.2-0.38-0.13-0.78-0.13-0.78s-0.66,0.22-0.87,0.6c-0.2,0.38,0.13,0.78,0.13,0.78s0.02-0.01,0.05-0.02
							c-0.51,0.34-0.91,0.72-1.19,1.11c0-0.1-0.02-0.2-0.11-0.31c-0.29-0.38-1.16-0.65-1.16-0.65s-0.39,0.34-0.1,0.72
							c0.26,0.33,0.97,0.59,1.13,0.64c-0.2,0.41-0.28,0.85-0.23,1.29c0.01,0.08,0.03,0.17,0.05,0.25c0,0,0,0,0,0l0,0
							c0.09,0.38,0.28,0.74,0.55,1.08c-0.16-0.07-0.35-0.13-0.59-0.17c-0.88-0.15-2.02,0.05-2.02,0.05s0.3,0.43,1.18,0.58
							c0.67,0.11,1.49,0.03,1.84-0.02c0.35,0.32,0.78,0.61,1.3,0.88c1.33,0.7,3.18,1.21,5.34,1.49l0.03-0.06
							c-0.83-0.1-1.59-0.24-2.3-0.41C239.62,384.97,240.48,384.69,240.55,384.25z"/>
					</g>
					<g>
						<path class="st59" d="M237.61,384.69c-1.04-0.03-2.07,0.37-2.07,0.37s0.65,0.45,1.68,0.48c1.04,0.03,2.07-0.37,2.07-0.37
							S238.65,384.72,237.61,384.69z"/>
					</g>
					<g>
						<path class="st59" d="M235.17,383.7c-0.99-0.06-2.07,0.28-2.07,0.28s0.54,0.42,1.53,0.48c0.99,0.06,2.07-0.28,2.07-0.28
							S236.17,383.76,235.17,383.7z"/>
					</g>
					<g>
						<path class="st59" d="M234.16,381.63c0,0-0.07-0.42-0.82-0.65c-0.74-0.24-1.88-0.2-1.88-0.2s0.07,0.42,0.82,0.65
							C233.03,381.67,234.16,381.63,234.16,381.63z"/>
					</g>
					<g>
						<path class="st59" d="M250.8,384.62c-1.04,0.03-1.68,0.48-1.68,0.48s1.04,0.4,2.07,0.37c1.04-0.03,1.68-0.48,1.68-0.48
							S251.84,384.59,250.8,384.62z"/>
					</g>
					<g>
						<path class="st59" d="M253.24,383.63c-0.99,0.06-1.53,0.48-1.53,0.48s1.07,0.33,2.07,0.28c0.99-0.06,1.53-0.48,1.53-0.48
							S254.23,383.57,253.24,383.63z"/>
					</g>
					<g>
						<path class="st59" d="M254.28,382.42c-0.24,0.04-0.43,0.1-0.59,0.17c0.28-0.34,0.46-0.71,0.55-1.08h0c0,0,0,0,0,0
							c0.02-0.08,0.04-0.16,0.05-0.25c0.06-0.45-0.02-0.88-0.23-1.29c0.16-0.05,0.87-0.3,1.13-0.64c0.29-0.38-0.1-0.72-0.1-0.72
							s-0.87,0.27-1.16,0.65c-0.09,0.11-0.11,0.21-0.11,0.31c-0.28-0.4-0.68-0.77-1.19-1.11c0.03,0.01,0.05,0.02,0.05,0.02
							s0.33-0.4,0.13-0.78c-0.2-0.38-0.87-0.6-0.87-0.6s-0.33,0.4-0.13,0.78c0.03,0.06,0.08,0.12,0.13,0.17
							c-0.56-0.3-1.2-0.56-1.93-0.79c-0.17-0.12-0.53-0.35-1.05-0.48c-0.75-0.19-1.54-0.11-1.54-0.11s0.41,0.38,1.16,0.57
							c0.64,0.16,1.32,0.13,1.5,0.11c0.73,0.24,1.37,0.51,1.92,0.82c-0.19-0.07-0.42-0.14-0.68-0.19c-0.79-0.14-1.56-0.02-1.56-0.02
							s0.51,0.35,1.31,0.5c0.62,0.11,1.23,0.06,1.46,0.03c0.63,0.43,1.1,0.9,1.37,1.41c-0.14-0.14-0.45-0.43-0.97-0.6
							c-0.71-0.23-1.53-0.15-1.53-0.15s0.34,0.46,1.05,0.69c0.63,0.21,1.35,0.16,1.5,0.15c0.2,0.41,0.28,0.83,0.22,1.27
							c0,0.01,0,0.03-0.01,0.04c-0.1-0.18-0.29-0.43-0.67-0.61c-0.63-0.3-1.53-0.26-1.53-0.26s0.12,0.52,0.76,0.82
							c0.49,0.23,1.13,0.26,1.4,0.26c-0.1,0.42-0.32,0.82-0.64,1.19c-0.08,0.04-0.14,0.09-0.19,0.13c0.08-0.18,0.17-0.53-0.09-0.81
							c-0.38-0.4-1.34-0.51-1.34-0.51s-0.35,0.53,0.03,0.93c0.32,0.34,1.05,0.47,1.27,0.5c-0.04,0.04-0.06,0.07-0.06,0.07
							s0.02,0,0.06,0.01c-0.41,0.38-0.95,0.72-1.59,1.03c0.1-0.12,0.45-0.58,0.19-0.96c-0.3-0.44-1.3-0.61-1.3-0.61
							s-0.52,0.55-0.22,0.99c0.27,0.4,1.11,0.57,1.27,0.6c-0.72,0.34-1.58,0.63-2.56,0.86c0.13-0.08,0.82-0.52,0.74-0.95
							c-0.08-0.48-1.07-0.77-1.07-0.77s-0.85,0.49-0.77,0.96c0.08,0.44,0.93,0.72,1.05,0.76c-0.71,0.17-1.48,0.3-2.3,0.41l0.03,0.06
							c2.16-0.27,4-0.79,5.34-1.49c0.52-0.27,0.95-0.57,1.3-0.88c0.35,0.05,1.17,0.13,1.84,0.02c0.88-0.15,1.18-0.58,1.18-0.58
							S255.17,382.27,254.28,382.42z"/>
					</g>
					<g>
						<path class="st59" d="M255.07,380.91c-0.74,0.24-0.82,0.65-0.82,0.65s1.13,0.03,1.88-0.2c0.74-0.24,0.82-0.65,0.82-0.65
							S255.81,380.67,255.07,380.91z"/>
					</g>
				</g>
				<g>
					<ellipse class="st59" cx="244.21" cy="381.07" rx="4.43" ry="2.04"/>
				</g>
			</g>
		</g>
	</g>
	<g>
		<path class="st1" d="M289.25,131.21c-0.7,0-1.37-0.27-1.86-0.77c-1.03-1.03-1.03-2.7,0-3.73c0.5-0.5,1.16-0.77,1.86-0.77
			s1.37,0.27,1.86,0.77l0,0c1.03,1.03,1.03,2.7,0,3.73C290.62,130.93,289.96,131.21,289.25,131.21z M289.25,126.57
			c-0.53,0-1.04,0.21-1.41,0.59c-0.78,0.78-0.78,2.05,0,2.83c0.38,0.38,0.88,0.59,1.41,0.59s1.04-0.21,1.41-0.59
			c0.78-0.78,0.78-2.05,0-2.83C290.29,126.78,289.79,126.57,289.25,126.57z"/>
		<polygon class="st1" points="292.67,132.45 290.67,130.44 291.12,129.99 293.12,132 		"/>
		<path class="st1" d="M293.56,132.9L293.56,132.9c-0.22,0.22-0.59,0.22-0.81,0l-1.67-1.67l0.81-0.81l1.67,1.67
			C293.78,132.31,293.78,132.67,293.56,132.9z"/>
	</g>
	<g>
		<defs>
			<filter id="Adobe_OpacityMaskFilter_10_" filterUnits="userSpaceOnUse" x="279.58" y="341.12" width="199.99" height="71.18">
				<feFlood  style="flood-color:white;flood-opacity:1" result="back"/>
				<feBlend  in="SourceGraphic" in2="back" mode="normal"/>
			</filter>
		</defs>
		<mask maskUnits="userSpaceOnUse" x="279.58" y="341.12" width="199.99" height="71.18" id="SVGID_20_">
			<g class="st61">
				<defs>
					<filter id="Adobe_OpacityMaskFilter_11_" filterUnits="userSpaceOnUse" x="279.58" y="341.12" width="199.99" height="71.18">
						<feFlood  style="flood-color:white;flood-opacity:1" result="back"/>
						<feBlend  in="SourceGraphic" in2="back" mode="normal"/>
					</filter>
				</defs>
				<mask maskUnits="userSpaceOnUse" x="279.58" y="341.12" width="199.99" height="71.18" id="SVGID_20_">
					<g class="st62">
					</g>
				</mask>
				<linearGradient id="SVGID_21_" gradientUnits="userSpaceOnUse" x1="324.1318" y1="398.8376" x2="485.0732" y2="321.6057">
					<stop  offset="4.277940e-03" style="stop-color:#FFFFFF"/>
					<stop  offset="1" style="stop-color:#000000"/>
				</linearGradient>
				<polygon class="st63" points="390.76,341.12 279.58,390.09 310.02,398.26 324.91,398.23 324.69,402.24 358.64,412.3 
					479.57,354.37 				"/>
			</g>
		</mask>
		<linearGradient id="SVGID_22_" gradientUnits="userSpaceOnUse" x1="324.1318" y1="398.8376" x2="485.0732" y2="321.6057">
			<stop  offset="4.277940e-03" style="stop-color:#137BA7"/>
			<stop  offset="1" style="stop-color:#FFFFFF"/>
		</linearGradient>
		<polygon class="st64" points="390.76,341.12 279.58,390.09 310.02,398.26 324.91,398.23 324.69,402.24 358.64,412.3 
			479.57,354.37 		"/>
		<g>
			<path class="st65" d="M298.81,296.78c-0.35,0-0.65-0.26-0.69-0.62c-1.04-9.59,1.63-18.51,6.51-21.68c2.44-1.59,5.18-1.6,7.9-0.01
				c3.38,1.96,5.34,5.26,5.82,9.8c0.24,2.31,0.09,4.84-0.47,7.51c-0.02,0.08-0.03,0.13-0.03,0.17c-0.03,0.33-0.3,0.6-0.65,0.62
				c-0.38,0.02-0.71-0.27-0.73-0.65c-0.01-0.11,0.01-0.17,0.06-0.42c0.73-3.52,1.74-12.12-4.69-15.84
				c-2.28-1.32-4.45-1.33-6.46-0.02c-2.07,1.34-3.8,4.04-4.88,7.59c-1.15,3.78-1.5,8.2-1,12.79c0.04,0.38-0.23,0.72-0.61,0.76
				C298.86,296.78,298.84,296.78,298.81,296.78z M317.86,291.86C317.86,291.86,317.86,291.86,317.86,291.86
				C317.86,291.86,317.86,291.86,317.86,291.86z M317.86,291.86C317.86,291.86,317.86,291.86,317.86,291.86
				C317.86,291.86,317.86,291.86,317.86,291.86z"/>
			<g>
				<polygon class="st66" points="284.6,295.34 303.3,300.88 328.35,292.39 349.78,285.13 332.1,286.45 327.87,285.13 				"/>
				<polygon class="st66" points="327.87,285.13 328.35,292.39 349.78,285.13 332.1,286.45 				"/>
				<polygon class="st67" points="303.09,297.86 310.02,398.26 279.58,389.62 284.6,295.34 298.81,296.09 				"/>
				<polygon class="st68" points="310.02,398.26 359.99,372.02 349.78,285.13 303.09,297.86 				"/>
				<polygon class="st69" points="298.81,296.09 296.13,383.14 310.02,398.26 303.09,297.86 				"/>
				<polygon class="st68" points="296.13,383.14 279.58,389.62 310.02,398.26 				"/>
			</g>
			<path class="st65" d="M313.35,298.27c-0.35,0-0.65-0.26-0.69-0.62c-1.11-10.26,1.74-19.79,6.95-23.18
				c2.6-1.69,5.51-1.7,8.42-0.01c3.61,2.09,5.7,5.61,6.21,10.47c0.26,2.47,0.09,5.18-0.5,8.03c-0.02,0.09-0.03,0.15-0.04,0.19
				c-0.03,0.34-0.3,0.61-0.65,0.63c-0.38,0.02-0.71-0.27-0.73-0.65c-0.01-0.11,0.01-0.17,0.06-0.44c0.78-3.78,1.86-13.02-5.05-17.03
				c-2.42-1.4-4.83-1.41-6.97-0.02c-2.22,1.45-4.09,4.34-5.25,8.15c-1.24,4.06-1.61,8.8-1.08,13.72c0.04,0.38-0.23,0.72-0.61,0.76
				C313.4,298.27,313.38,298.27,313.35,298.27z M333.71,293.05C333.71,293.05,333.71,293.05,333.71,293.05
				C333.71,293.05,333.71,293.05,333.71,293.05z"/>
			<polygon class="st70" points="350.31,291.44 315.59,300.88 320.81,392.6 359.99,372.02 			"/>
		</g>
		<g>
			<path class="st65" d="M345.98,299.28c-0.38,0-0.72-0.29-0.76-0.68c-1.15-10.61,1.81-20.47,7.2-23.97
				c2.7-1.76,5.72-1.76,8.74-0.02c3.74,2.17,5.91,5.82,6.44,10.84c0.27,2.56,0.1,5.35-0.52,8.31c-0.02,0.09-0.03,0.15-0.04,0.19
				c-0.04,0.37-0.34,0.67-0.72,0.69c-0.42,0.02-0.78-0.3-0.8-0.72c-0.01-0.12,0.01-0.19,0.07-0.47c0.81-3.89,1.92-13.4-5.19-17.52
				c-2.52-1.46-4.92-1.47-7.14-0.03c-2.28,1.49-4.2,4.47-5.4,8.39c-1.28,4.18-1.66,9.07-1.11,14.14c0.05,0.42-0.26,0.8-0.68,0.84
				C346.03,299.28,346,299.28,345.98,299.28z M367.04,293.84C367.04,293.84,367.04,293.84,367.04,293.84
				C367.04,293.84,367.04,293.84,367.04,293.84z M367.04,293.84C367.04,293.84,367.04,293.84,367.04,293.84
				C367.04,293.84,367.04,293.84,367.04,293.84z"/>
			<g>
				<polygon class="st71" points="330.26,297.69 350.93,303.82 378.64,294.43 402.33,286.41 382.79,287.86 378.11,286.41 				"/>
				<polygon class="st71" points="378.11,286.41 378.64,294.43 402.33,286.41 382.79,287.86 				"/>
				<polygon class="st72" points="350.7,300.48 358.37,411.49 324.71,401.93 330.26,297.69 345.98,298.52 				"/>
				<polygon class="st73" points="358.37,411.49 413.62,382.47 402.33,286.41 350.7,300.48 				"/>
				<polygon class="st74" points="345.98,298.52 343.01,394.77 358.37,411.49 350.7,300.48 				"/>
				<polygon class="st73" points="343.01,394.77 324.71,401.93 358.37,411.49 				"/>
			</g>
			<path class="st65" d="M362.05,300.93c-0.38,0-0.72-0.29-0.76-0.68c-1.23-11.35,1.93-21.88,7.68-25.63
				c2.88-1.87,6.09-1.88,9.31-0.02c3.99,2.31,6.3,6.21,6.87,11.57c0.29,2.74,0.1,5.72-0.55,8.88c-0.02,0.09-0.03,0.16-0.04,0.21
				c-0.03,0.37-0.34,0.67-0.72,0.69c-0.42,0.02-0.78-0.3-0.8-0.72c-0.01-0.12,0.01-0.19,0.07-0.49c0.87-4.18,2.06-14.39-5.59-18.82
				c-2.68-1.55-5.34-1.56-7.71-0.03c-2.46,1.6-4.52,4.8-5.81,9.02c-1.37,4.49-1.78,9.73-1.19,15.17c0.05,0.42-0.26,0.8-0.68,0.84
				C362.11,300.93,362.08,300.93,362.05,300.93z M384.56,295.16C384.56,295.16,384.56,295.16,384.56,295.16
				C384.56,295.16,384.56,295.16,384.56,295.16z"/>
		</g>
	</g>
</g>
</svg>
